<?xml version="1.0" standalone="no"?>
<!DOCTYPE svg PUBLIC "-//W3C//DTD SVG 20010904//EN"
 "http://www.w3.org/TR/2001/REC-SVG-20010904/DTD/svg10.dtd">
<svg version="1.0" xmlns="http://www.w3.org/2000/svg"
 width="1288.000000pt" height="1288.000000pt" viewBox="0 0 1288.000000 1288.000000"
 preserveAspectRatio="xMidYMid meet">
<metadata>
Created by potrace 1.11, written by Peter Selinger 2001-2013
</metadata>
<g transform="translate(0.000000,1288.000000) scale(0.100000,-0.100000)"
fill="#000000" stroke="none">
<path d="M4790 11537 c0 -5 -4 -6 -8 -3 -5 3 -18 -4 -30 -14 -12 -11 -24 -20
-26 -20 -3 0 -29 -18 -58 -40 -29 -23 -170 -129 -313 -237 -143 -108 -273
-207 -290 -220 -16 -13 -34 -27 -40 -31 -5 -5 -72 -54 -147 -111 -76 -57 -137
-106 -136 -109 1 -8 -7 -33 -28 -80 -8 -18 -14 -39 -14 -47 0 -8 -4 -15 -10
-15 -5 0 -10 -7 -10 -16 0 -9 -6 -30 -14 -47 -8 -18 -29 -70 -47 -117 -18 -47
-36 -89 -41 -94 -4 -6 -8 -15 -8 -22 0 -6 -8 -29 -17 -50 -9 -22 -17 -41 -18
-44 -1 -3 -5 -14 -10 -25 -5 -11 -32 -78 -60 -150 -29 -71 -56 -139 -60 -150
-5 -11 -9 -22 -10 -25 -1 -3 -5 -14 -10 -25 -54 -132 -98 -244 -101 -260 -3
-11 -4 -373 -4 -805 2 -1529 2 -1511 -21 -1517 -10 -3 -19 -9 -19 -14 0 -5 -3
-8 -7 -7 -5 1 -47 -18 -94 -41 -80 -39 -88 -46 -103 -85 -9 -24 -19 -52 -21
-62 -2 -11 -22 -69 -43 -130 -21 -61 -37 -117 -36 -125 2 -8 5 -25 8 -39 3
-14 7 -37 8 -52 1 -16 5 -28 8 -28 3 0 7 -10 7 -22 1 -25 10 -81 14 -85 3 -4
5 -15 14 -73 5 -30 9 -57 10 -60 5 -20 26 -120 29 -140 3 -14 5 -25 6 -25 2 0
5 -22 21 -120 6 -38 13 -81 15 -95 5 -28 30 -180 37 -225 3 -16 8 -41 11 -55
4 -14 8 -38 10 -55 3 -27 11 -74 21 -130 2 -11 4 -28 4 -37 1 -9 106 -121 234
-249 l232 -232 0 -867 1 -866 -56 0 -55 1 -176 -175 -175 -175 0 -170 1 -170
-52 -38 c-28 -20 -56 -37 -61 -37 -6 0 -12 -4 -14 -9 -1 -4 -43 -34 -93 -66
-68 -43 -127 -95 -242 -214 l-152 -156 -1 -320 c0 -273 2 -324 15 -340 99
-127 225 -298 225 -305 0 -6 4 -10 9 -10 4 0 21 -19 37 -42 30 -44 34 -49 84
-108 17 -19 30 -40 30 -47 0 -7 4 -13 8 -13 5 0 24 -21 42 -47 97 -136 182
-232 251 -283 41 -30 79 -58 84 -63 6 -4 44 -33 85 -63 41 -31 84 -63 95 -72
11 -10 32 -25 46 -34 14 -9 32 -23 40 -30 14 -13 65 -39 84 -43 6 -2 33 -13
60 -25 28 -12 64 -28 80 -35 17 -7 50 -22 75 -33 25 -11 137 -59 250 -107 113
-48 210 -90 215 -93 6 -4 17 -9 25 -11 8 -3 937 -7 2064 -8 1758 -3 2053 -1
2080 11 17 8 141 58 276 112 209 83 262 108 360 173 63 42 124 84 134 94 11 9
24 17 29 17 10 0 88 58 99 75 4 5 8 7 8 3 0 -7 16 1 110 55 25 15 65 37 90 49
25 13 47 26 50 29 3 4 30 19 60 34 30 16 62 34 70 40 8 7 44 28 80 47 126 68
205 112 210 117 3 3 31 20 63 36 110 56 105 51 64 69 -21 9 -54 24 -74 33 -21
9 -41 17 -45 17 -3 1 -10 4 -14 9 -4 4 -15 7 -24 7 -14 0 -279 110 -390 162
-25 12 -50 23 -55 24 -6 1 -31 11 -55 22 -25 11 -119 52 -210 92 -91 40 -171
77 -177 83 -7 5 -13 7 -13 4 0 -3 -26 7 -57 22 -32 16 -74 35 -93 43 -56 25
-369 164 -435 194 -33 15 -64 26 -69 25 -5 -1 -17 6 -27 15 -11 9 -19 15 -19
12 0 -6 -470 471 -492 500 -10 12 -18 24 -18 27 0 6 -141 217 -149 225 -3 3
-12 17 -20 32 -13 25 -6 50 99 365 111 333 133 393 148 393 4 0 16 15 27 33
10 17 21 34 25 37 3 3 59 77 125 165 66 88 125 166 132 173 16 17 16 25 1 41
-11 10 -10 11 2 6 12 -4 24 16 50 82 18 49 37 93 40 98 4 6 17 39 30 75 13 36
26 70 30 75 4 6 15 33 25 60 9 28 23 64 31 80 38 88 204 511 204 522 0 7 5 13
10 13 6 0 10 6 10 14 0 8 5 27 12 43 6 15 12 30 13 33 1 3 5 12 8 20 9 19 97
279 103 302 2 10 6 27 8 38 3 11 -20 93 -51 182 -55 164 -59 182 -49 228 5 23
13 72 21 130 1 14 4 25 5 25 2 0 7 23 13 75 4 25 8 56 11 70 3 14 7 41 10 60
3 19 8 46 11 60 3 14 8 45 11 70 3 25 8 56 10 70 3 14 7 39 10 55 3 17 8 37
11 45 3 8 7 17 8 20 1 3 6 20 10 38 4 18 12 35 16 38 5 3 9 15 9 28 0 12 3 26
7 30 4 3 8 12 9 19 1 7 12 39 24 72 13 33 23 72 24 87 0 14 4 24 7 22 3 -2 27
52 54 119 26 67 56 141 66 164 11 23 19 49 19 57 0 9 5 16 12 16 6 0 8 3 5 6
-3 4 -1 16 5 28 7 11 13 26 14 32 1 5 11 30 23 54 11 24 21 52 21 62 0 14 105
291 149 393 27 62 65 157 66 165 1 3 9 22 18 44 9 21 17 40 17 43 0 2 7 20 16
41 10 20 18 42 19 47 2 6 11 31 22 55 23 52 35 81 39 95 5 21 155 391 164 407
6 10 10 22 10 28 0 5 11 34 25 64 14 30 25 57 25 61 0 3 7 21 15 41 8 19 14
36 15 39 0 3 16 41 34 85 19 44 31 80 28 80 -4 0 -2 4 3 8 31 22 35 55 34 274
0 259 0 220 0 423 1 157 0 175 -12 205 -3 8 -10 35 -17 60 -6 25 -15 59 -20
75 -40 140 -72 254 -76 274 -3 14 -8 29 -12 35 -3 6 -8 18 -9 26 -1 8 -20 77
-42 153 -37 127 -59 175 -75 160 -3 -4 -6 -2 -6 4 0 6 -19 23 -42 39 -24 16
-47 34 -53 40 -5 6 -26 22 -45 34 -19 13 -37 27 -40 30 -3 3 -41 32 -85 64
-44 33 -81 63 -83 68 -2 4 -9 8 -17 8 -7 0 -18 7 -25 16 -12 13 -65 41 -95 48
-5 2 -17 6 -25 9 -14 5 -90 30 -100 32 -41 11 -67 19 -75 25 -5 4 -26 11 -45
15 -19 4 -51 18 -72 31 -21 13 -40 24 -42 24 -3 0 -31 15 -63 34 -61 35 -116
66 -223 124 -36 19 -69 38 -75 42 -5 4 -50 29 -100 55 -49 26 -98 55 -107 63
-10 8 -18 11 -18 7 0 -4 -8 -2 -17 6 -18 14 -32 22 -123 71 -25 14 -88 49
-140 78 l-95 54 -1557 0 c-857 1 -1558 -3 -1558 -7z m470 -813 c0 -8 -19 -13
-24 -6 -3 5 1 9 9 9 8 0 15 -2 15 -3z m3350 -1264 c0 -5 -2 -10 -4 -10 -3 0
-8 5 -11 10 -3 6 -1 10 4 10 6 0 11 -4 11 -10z m-2567 -1735 c-3 -9 -8 -14
-10 -11 -3 3 -2 9 2 15 9 16 15 13 8 -4z m-773 -921 c0 -8 -19 -13 -24 -6 -3
5 1 9 9 9 8 0 15 -2 15 -3z m3335 -692 c-3 -3 -11 0 -18 7 -9 10 -8 11 6 5 10
-3 15 -9 12 -12z"/>
</g>
</svg>
