<?xml version="1.0" encoding="utf-8"?>
<svg version="1.1" xmlns="http://www.w3.org/2000/svg" xmlns:xlink="http://www.w3.org/1999/xlink" x="0px" y="0px"
	 viewBox="0 0 96.96 160.56" style="enable-background:new 0 0 96.96 160.56;" xml:space="preserve">
<style type="text/css">
	.st1{fill:#8D919F;}
	.st2{fill:#777C89;}
	.st3{fill:#3F2A1F;}
	.st4{fill:#583D2F;}
	.st5{fill:#72503D;}
	.st6{fill:#17120E;}
	.st7{fill:#624434;}
	.st8{fill:#211713;}
	.st9{fill:#583C30;}
	.st10{fill:#956E5B;}
	.st11{fill:#B58D81;}
	.st12{fill:#674E44;}
	.st13{fill:#93756C;}
	.st14{fill:#876052;}
	.st15{fill:#957268;}
	.st16{fill:#987065;}
	.st17{fill:#5D483B;}
	.st18{fill:#8A645C;}
	.st19{fill:#30231F;}
	.st20{fill:#886358;}
	.st21{fill:#070607;}
	.st22{fill:#0B0C0E;}
	.st23{fill:#141519;}
	.st24{fill:#BA9285;}
	.st25{fill:#101011;}
	.st26{fill:#8A685B;}
	.st27{fill:#AB8276;}
	.st28{fill:#91716B;}
	.st29{fill:#151416;}
	.st30{fill:#9D776B;}
	.st31{fill:#100D0C;}
	.st32{fill:#121213;}
	.st33{fill:#5D4235;}
	.st34{fill:#050405;}
	.st35{fill:#0F0F11;}
	.st36{fill:#131315;}
	.st37{fill:#060506;}
	.st38{fill:#0D0C0E;}
	.st39{fill:#161616;}
	.st40{fill:#5A443D;}
	.st41{fill:#735D56;}
	.st42{fill:#372824;}
	.st43{fill:#7D655C;}
	.st44{fill:#523B31;}
	.st45{fill:#4D3A33;}
	.st46{fill:#543C32;}
	.st47{fill:#1C1716;}
	.st48{fill:#38281F;}
	.st49{fill:#89736E;}
	.st50{fill:#AF8171;}
	.st51{fill:#C5A198;}
	.st52{fill:#0C0909;}
	.st53{fill:#7B7D88;}
	.st54{fill:#54565E;}
	.st55{fill:#6C4E42;}
	.st56{fill:#454850;}
	.st57{fill:#554036;}
	.st58{fill:#2E1F1B;}
	.st59{fill:#5B463D;}
	.st60{fill:#8F6C5C;}
	.st61{fill:#696A74;}
	.st62{fill:#5E6167;}
	.st63{fill:#0D0D0D;}
	.st64{fill:#969BAA;}
	.st65{fill:#74798A;}
	.st66{fill:#797D8A;}
	.st67{fill:#0A0909;}
	.st68{fill:#1F1E21;}
	.st69{fill:#202023;}
	.st70{fill:#462F23;}
	.st71{fill:#9B7366;}
	.st72{fill:#9D786B;}
	.st73{fill:#785A4E;}
	.st74{fill:#AF8678;}
	.st75{fill:#9B7264;}
	.st76{fill:#4F3023;}
	.st77{fill:#77584F;}
	.st78{fill:#7A594E;}
	.st79{fill:#251912;}
	.st80{fill:#AC8477;}
	.st81{fill:#A98478;}
	.st82{fill:#9D786C;}
	.st83{fill:#523F35;}
	.st84{fill:#0F0F0F;}
	.st85{fill:#AE887A;}
	.st86{fill:#17171A;}
	.st87{fill:#35241B;}
	.st88{fill:#3F291E;}
	.st89{fill:#956E60;}
	.st90{fill:#36271F;}
	.st91{fill:#523830;}
	.st92{fill:#251913;}
	.st93{fill:#9E7261;}
	.st94{fill:#8B665A;}
	.st95{fill:#31211A;}
	.st96{fill:#A37566;}
	.st97{fill:#2B2A2F;}
	.st98{fill:#131415;}
	.st99{fill:#161515;}
	.st100{fill:#343335;}
	.st101{fill:#07070A;}
	.st102{fill:#2F3137;}
	.st103{fill:#151619;}
	.st104{fill:#4B3732;}
	.st105{fill:#61514A;}
	.st106{fill:#53433B;}
	.st107{fill:#6F5A58;}
	.st108{fill:#888D9B;}
	.st109{fill:#755C55;}
	.st110{fill:#594439;}
	.st111{fill:#2D2723;}
	.st112{fill:#100F0F;}
	.st113{fill:#47372C;}
	.st114{fill:#51545B;}
	.st115{fill:#4E372C;}
	.st116{fill:#AB806E;}
	.st117{fill:#5E5F6A;}
	.st118{fill:#8D93A1;}
	.st119{fill:#8E94A4;}
	.st120{fill:#6D7282;}
	.st121{fill:#6A4C41;}
	.st122{fill:#7F808D;}
	.st123{fill:#727582;}
	.st124{fill:#B58C83;}
	.st125{fill:#1C1B1B;}
	.st126{fill:#232122;}
	.st127{fill:#31353F;}
	.st128{fill:#886A62;}
	.st129{fill:#5A4841;}
	.st130{fill:#624E46;}
	.st131{fill:#1F0F0A;}
	.st132{fill:#6F4C43;}
	.st133{fill:#735E57;}
	.st134{fill:#3B2016;}
	.st135{fill:#523C36;}
	.st136{fill:#846157;}
	.st137{fill:#725041;}
	.st138{fill:#46352A;}
	.st139{fill:#513729;}
	.st140{fill:#4D362C;}
	.st141{fill:#737782;}
	.st142{fill:#5F6168;}
	.st143{fill:#3F2F26;}
	.st144{fill:#584438;}
	.st145{fill:#64676F;}
	.st146{fill:#9395A1;}
	.st147{fill:#707481;}
	.st148{fill:#6D7077;}
	.st149{fill:#2E2B2F;}
	.st150{fill:#2D1810;}
	.st151{fill:#56433B;}
	.st152{fill:#191919;}
	.st153{fill:#7A5C4F;}
	.st154{fill:#6E5346;}
	.st155{fill:#614B44;}
	.st156{fill:#85695F;}
	.st157{fill:#886B62;}
	.st158{fill:#5A362A;}
	.st159{fill:#684133;}
	.st160{fill:#7C818F;}
	.st161{fill:#707480;}
	.st162{fill:#705242;}
	.st163{fill:#644537;}
	.st164{fill:#594943;}
	.st165{fill:#685045;}
	.st166{fill:#6D4E44;}
	.st167{fill:#402E25;}
	.st168{fill:#71523F;}
	.st169{fill:#717684;}
	.st170{fill:#261A14;}
	.st171{fill:#2C1F18;}
	.st172{fill:#16110E;}
	.st173{fill:#2F2928;}
	.st174{fill:#2A1E1A;}
	.st175{fill:#3A2F2E;}
	.st176{fill:#2B2521;}
	.st177{fill:#181717;}
	.st178{fill:#231B18;}
	.st179{fill:#181514;}
	.st180{fill:#140F0B;}
	.st181{fill:#1F1A19;}
	.st182{fill:#221813;}
	.st183{fill:#5F4741;}
	.st184{fill:#5D4644;}
	.st185{fill:#43332F;}
	.st186{fill:#644942;}
	.st187{fill:#52413B;}
	.st188{fill:#402A25;}
	.st189{fill:#2D2623;}
	.st190{fill:#332721;}
	.st191{fill:#4C352E;}
	.st192{fill:#16110F;}
	.st193{fill:#1A130E;}
	.st194{fill:#48352E;}
	.st195{fill:#231812;}
	.st196{fill:#1F1A17;}
	.st197{fill:#68504C;}
	.st198{fill:#3B2C27;}
	.st199{fill:#514041;}
	.st200{fill:#564B46;}
	.st201{fill:#261D1A;}
	.st202{fill:#8E7F7A;}
	.st203{fill:#584C48;}
	.st204{fill:#544644;}
	.st205{fill:#604E4A;}
	.st206{fill:#AF7F71;}
	.st207{fill:#B58879;}
	.st208{fill:#90695E;}
	.st209{fill:#B08576;}
	.st210{fill:#C09384;}
	.st211{fill:#936D60;}
	.st212{fill:#BB908A;}
	.st213{fill:#AF8174;}
	.st214{fill:#9B6758;}
	.st215{fill:#B28B85;}
	.st216{fill:#865748;}
	.st217{fill:#A07C85;}
	.st218{fill:#523F3B;}
	.st219{fill:#483D3B;}
	.st220{fill:#1C120F;}
	.st221{fill:#B1828D;}
	.st222{fill:#3C2E2A;}
	.st223{fill:#402C27;}
	.st224{fill:#BCAFAF;}
	.st225{fill:#9E958F;}
	.st226{fill:#BAAFA8;}
	.st227{fill:#AFA59E;}
	.st228{fill:#BCB4AF;}
	.st229{fill:#493530;}
	.st230{fill:#4B3A35;}
	.st231{fill:#826765;}
	.st232{fill:#967076;}
	.st233{fill:#92646F;}
	.st234{fill:#131314;}
	.st235{fill:#33353D;}
	.st236{fill:#19191C;}
	.st237{fill:#19181A;}
	.st238{fill:#121214;}
	.st239{fill:#171413;}
	.st240{fill:#2B211C;}
	.st241{fill:#3A2925;}
	.st242{fill:#292728;}
	.st243{fill:#17100D;}
	.st244{fill:#130E0F;}
	.st245{fill:#140F0F;}
	.st246{fill:#2D2626;}
	.st247{fill:#191311;}
	.st248{fill:#221C16;}
	.st249{fill:#191615;}
	.st250{fill:#D6CBC1;}
	.st251{fill:#968D87;}
	.st252{fill:#B38B7D;}
	.st253{fill:#805E53;}
	.st254{fill:#585B64;}
	.st255{fill:#5C6068;}
	.st256{fill:#989CA7;}
	.st257{fill:#57413B;}
	.st258{fill:#1E1F25;}
	.st259{fill:#141414;}
	.st260{fill:#09080B;}
	.st261{fill:#64666F;}
	.st262{fill:#0A0A0A;}
	.st263{fill:#593D2D;}
	.st264{fill:#878C9B;}
	.st265{fill:#725F5D;}
	.st266{fill:#806966;}
	.st267{fill:#A59B95;}
	.st268{fill:#785242;}
	.st269{fill:#3D312E;}
	.st270{fill:#130D0C;}
	.st271{fill:#53413D;}
	.st272{fill:#543829;}
	.st273{fill:#5B4A45;}
	.st274{fill:#79523E;}
	.st275{fill:#4E3428;}
	.st276{fill:#8F6554;}
	.st277{fill:#775242;}
	.st278{fill:#382D2A;}
	.st279{fill:#6C717C;}
	.st280{fill:#724D3D;}
	.st281{fill:#7C584E;}
	.st282{fill:#6D473C;}
	.st283{fill:#C49790;}
	.st284{fill:#201E23;}
	.st285{fill:#C68A87;}
</style>
<g id="Poly">
	<g>
		<polygon class="st1" points="73.89,160.59 73.89,160.65 73.94,160.59 		"/>
		<polygon class="st2" points="73.89,160.65 74.04,160.59 73.94,160.59 		"/>
		<polygon class="st3" points="53.73,147.69 46.71,143.22 46.53,143.37 37.89,147.69 49.41,147.69 		"/>
		<polygon class="st4" points="37.89,126.09 20.61,137.61 37.89,137.61 		"/>
		<polygon class="st5" points="20.61,137.61 29.25,144.81 37.89,137.61 		"/>
		<polygon class="st6" points="50.85,126.09 37.89,126.09 37.89,137.61 		"/>
		<polygon class="st7" points="29.25,144.81 37.89,147.69 37.89,137.61 		"/>
		<polygon class="st8" points="59.49,153.45 59.49,147.69 53.73,153.45 		"/>
		<line class="st9" x1="49.41" y1="156.33" x2="49.41" y2="147.69"/>
		<polygon class="st10" points="20.61,95.85 47.97,92.97 30.69,87.21 		"/>
		<polygon class="st11" points="30.69,87.21 47.97,92.97 42.21,87.21 		"/>
		<polygon class="st12" points="22.05,87.21 22.05,88.65 20.61,95.85 30.69,87.21 		"/>
		<polygon class="st13" points="52.29,87.21 53.21,85.84 42.21,87.21 47.97,92.97 49.41,91.53 		"/>
		<polygon class="st14" points="22.05,87.21 30.69,78.57 22.05,77.13 22.05,78.57 		"/>
		<polygon class="st15" points="53.73,128.97 53.73,127.53 53.73,120.33 46.53,120.33 		"/>
		<polygon class="st16" points="45.87,118.89 46.05,119.29 46.53,118.89 		"/>
		<polygon class="st17" points="37.89,137.61 53.73,128.97 46.53,120.33 46.05,119.29 37.89,126.09 50.85,126.09 		"/>
		<polygon class="st16" points="53.73,114.57 43.87,114.57 45.87,118.89 46.53,118.89 46.05,119.29 46.53,120.33 		"/>
		<polygon class="st18" points="53.73,120.33 53.73,114.57 46.53,120.33 		"/>
		<polygon class="st19" points="50.85,101.61 56.61,101.61 49.41,95.85 49.41,101.61 		"/>
		<polygon class="st20" points="49.74,111.58 49.25,111.21 47.97,110.25 40.77,104.49 37.89,101.61 43.87,114.57 53.73,114.57 		"/>
		<polygon class="st21" points="66.69,49.77 75.33,42.57 66.69,42.57 		"/>
		<polygon class="st22" points="75.33,42.57 75.33,33.93 66.69,42.57 		"/>
		<polygon class="st23" points="66.69,33.93 60.93,33.93 66.69,42.57 		"/>
		<polygon class="st24" points="66.69,71.37 81.09,71.37 66.69,64.17 		"/>
		<polygon class="st25" points="75.33,33.93 66.69,33.93 66.69,42.57 		"/>
		<polygon class="st26" points="33.57,71.37 22.05,77.13 30.69,78.57 		"/>
		<polygon class="st27" points="66.69,64.17 79.65,56.97 66.69,55.53 		"/>
		<polygon class="st28" points="81.09,71.37 79.65,56.97 66.69,64.17 		"/>
		<polygon class="st29" points="48.77,49.13 49.41,48.33 42.21,41.13 33.57,51.21 43.65,49.77 		"/>
		<polygon class="st30" points="66.69,55.53 79.65,56.97 72.45,51.21 		"/>
		<polygon class="st31" points="66.69,50.49 72.45,51.21 75.33,42.57 66.69,49.77 		"/>
		<polygon class="st32" points="20.61,41.13 33.57,51.21 33.57,41.13 		"/>
		<polygon class="st33" points="59.49,147.69 53.73,137.61 53.73,147.69 		"/>
		<polygon class="st34" points="32.93,40.33 32.85,40.41 32.93,40.33 27.81,33.93 20.61,41.13 33.57,41.13 		"/>
		<polygon class="st35" points="33.57,41.13 33.57,51.21 42.21,41.13 		"/>
		<polygon class="st36" points="49.41,48.33 49.41,33.93 42.21,41.13 		"/>
		<polygon class="st37" points="60.93,33.93 49.41,33.93 49.41,48.33 		"/>
		<polygon class="st38" points="33.57,39.69 33.57,41.13 42.21,41.13 39.33,33.93 		"/>
		<polygon class="st39" points="39.33,33.93 33.57,26.73 33.57,39.69 		"/>
		<polygon class="st40" points="60.93,121.77 60.93,113.13 53.73,114.57 		"/>
		<polygon class="st41" points="53.73,128.97 60.93,128.97 53.73,127.53 		"/>
		<polygon class="st41" points="60.93,128.97 60.93,121.77 53.73,127.53 		"/>
		<polygon class="st42" points="60.93,101.61 59.49,101.61 56.61,100.17 53.73,95.85 52.29,95.85 49.41,95.85 56.61,101.61 
			65.25,104.49 69.57,105.93 63.81,100.17 		"/>
		<polygon class="st43" points="73.89,74.25 81.09,71.37 66.69,71.37 		"/>
		<polygon class="st44" points="53.73,147.69 53.73,137.61 46.71,143.22 		"/>
		<polygon class="st17" points="37.89,137.61 38.61,137.61 53.01,137.61 53.73,137.61 53.73,128.97 		"/>
		<polygon class="st45" points="69.57,105.93 71.01,100.17 63.81,100.17 		"/>
		<polygon class="st46" points="65.25,98.73 63.81,100.17 71.01,100.17 68.13,97.29 		"/>
		<polygon class="st47" points="78.21,81.45 78.21,78.57 73.89,80.01 		"/>
		<polygon class="st48" points="72.45,77.13 73.89,80.01 78.21,78.57 73.89,77.13 		"/>
		<polygon class="st49" points="79.65,75.69 81.09,71.37 73.89,74.25 		"/>
		<polygon class="st50" points="72.45,85.77 71.01,85.77 71.01,92.97 76.77,85.77 73.89,85.77 		"/>
		<polygon class="st50" points="65.25,92.97 71.01,92.97 71.01,85.77 		"/>
		<polygon class="st51" points="68.13,97.29 71.01,92.97 65.25,92.97 		"/>
		<polygon class="st52" points="79.65,56.97 75.33,42.57 72.45,51.21 		"/>
		<polygon class="st53" points="17.73,134.73 17.73,134.73 11.97,141.93 17.73,141.93 		"/>
		<polygon class="st54" points="11.97,141.93 7.65,152.01 17.73,141.93 		"/>
		<polygon class="st55" points="65.41,77.07 62.37,75.58 62.37,78.57 		"/>
		<polygon class="st56" points="63.81,147.69 63.81,140.49 59.49,147.69 		"/>
		<polygon class="st57" points="63.81,140.49 53.73,137.61 59.49,147.69 		"/>
		<polygon class="st58" points="69.57,77.13 65.25,77.13 66.69,80.01 		"/>
		<polygon class="st59" points="37.89,72.81 36.45,72.81 33.57,75.69 42.21,72.81 		"/>
		<polygon class="st60" points="22.05,87.21 30.69,87.21 30.69,78.57 		"/>
		<polygon class="st58" points="66.69,80.01 65.25,77.13 63.81,82.89 		"/>
		<polygon class="st61" points="17.73,134.73 17.73,141.93 23.49,141.93 19.17,136.17 		"/>
		<polygon class="st62" points="7.65,152.01 17.33,145.85 17.33,145.85 23.49,141.93 17.73,141.93 		"/>
		<polygon class="st63" points="82.53,51.21 75.33,42.57 79.65,56.97 		"/>
		<polygon class="st64" points="85.8,154.56 93.89,147.82 93.59,147.69 73.89,147.69 		"/>
		<polygon class="st65" points="73.89,147.69 93.59,147.69 86.85,144.81 73.89,139.05 73.89,147.69 		"/>
		<polygon class="st66" points="73.92,160.57 73.94,147.69 60.93,157.77 		"/>
		<polygon class="st67" points="20.61,46.89 33.57,51.21 20.61,41.13 		"/>
		<polygon class="st68" points="10.53,69.93 11.43,71.37 11.68,71.37 		"/>
		<polygon class="st69" points="9.09,41.13 20.61,46.89 20.61,41.13 		"/>
		<polygon class="st70" points="69.57,74.25 66.69,71.37 65.25,77.13 		"/>
		<polygon class="st71" points="66.69,64.17 66.69,55.53 55.17,55.53 		"/>
		<polygon class="st72" points="60.93,49.77 55.17,48.33 49.93,48.98 55.17,55.53 65.54,50.35 		"/>
		<polygon class="st73" points="66.69,55.53 72.45,51.21 66.69,50.49 66.69,51.21 		"/>
		<polygon class="st74" points="55.17,64.17 66.69,64.17 55.17,55.53 		"/>
		<polygon class="st75" points="66.69,71.37 66.69,64.17 55.17,64.17 		"/>
		<polygon class="st76" points="62.37,75.69 66.69,71.37 56.61,74.25 		"/>
		<polygon class="st77" points="55.17,55.53 66.69,55.53 66.69,51.21 66.69,50.49 65.54,50.35 		"/>
		<polygon class="st78" points="56.61,74.25 66.69,71.37 55.17,71.37 		"/>
		<polygon class="st79" points="47.97,75.69 50.85,77.13 52.29,78.57 56.61,78.57 50.85,75.69 		"/>
		<polygon class="st80" points="55.17,71.37 66.69,71.37 55.17,64.17 		"/>
		<path class="st81" d="M46.53,69.93c0.77,0,1.95,0,2.88,0c0.81,0,1.44,0,1.44,0l4.32,1.44l-11.52-7.2l-5.76,5.76h4.32
			C42.21,69.93,45.09,69.93,46.53,69.93z"/>
		<polygon class="st82" points="55.17,64.17 43.65,64.17 55.17,71.37 		"/>
		<polygon class="st59" points="36.45,72.81 33.57,71.37 33.57,75.69 		"/>
		<polygon class="st83" points="66.69,50.49 66.69,49.77 65.54,50.35 		"/>
		<polygon class="st77" points="55.17,55.53 43.65,55.53 55.17,64.17 		"/>
		<polygon class="st84" points="55.17,48.33 60.93,49.77 65.54,50.35 66.69,49.77 66.69,42.57 49.41,48.33 49.93,48.98 		"/>
		<polygon class="st85" points="49.93,48.98 48.77,49.13 43.65,55.53 55.17,55.53 		"/>
		<polygon class="st86" points="49.41,48.33 48.77,49.13 49.93,48.98 		"/>
		<polygon class="st87" points="49.41,72.81 47.97,72.81 42.21,72.81 46.53,75.69 		"/>
		<polygon class="st88" points="52.29,78.57 53.73,80.01 58.05,78.57 62.37,75.69 56.61,74.25 56.61,78.57 		"/>
		<polygon class="st79" points="56.61,78.57 56.61,74.25 53.73,74.25 		"/>
		<polygon class="st89" points="33.54,75.69 30.6,78.57 35.01,77.13 		"/>
		<polygon class="st90" points="37.89,75.69 40.77,75.69 42.21,75.69 43.65,75.69 45.09,75.69 46.53,75.69 42.21,72.81 33.57,75.69 
			36.45,75.69 		"/>
		<polygon class="st91" points="52.29,81.45 53.57,85.29 53.73,85.05 53.73,80.01 		"/>
		<polygon class="st79" points="56.61,78.57 53.73,74.25 50.85,75.69 		"/>
		<polygon class="st92" points="53.73,74.25 50.85,72.81 49.41,72.81 50.85,75.69 		"/>
		<polygon class="st93" points="49.41,81.45 47.97,81.45 46.53,81.45 43.65,81.45 40.77,81.45 37.89,80.01 42.21,87.21 52.29,81.45 
					"/>
		<polygon class="st94" points="63.81,82.89 65.25,77.13 62.37,78.57 63.81,85.77 65.25,92.97 71.01,85.77 66.69,84.33 		"/>
		<polygon class="st95" points="69.49,80.01 70.96,80.01 72.42,80.01 73.89,80.01 72.42,76.94 66.56,80.01 		"/>
		<polygon class="st14" points="36.45,78.57 35.01,77.13 30.69,87.21 37.89,80.01 		"/>
		<polygon class="st10" points="30.69,87.21 42.21,87.21 37.89,80.01 		"/>
		<polygon class="st96" points="52.29,81.45 42.21,87.21 53.21,85.84 53.57,85.29 		"/>
		<polygon class="st91" points="53.73,85.05 55.17,82.89 58.05,78.57 53.73,80.01 		"/>
		<polygon class="st97" points="92.61,49.77 92.61,44.01 75.33,42.57 		"/>
		<polygon class="st36" points="82.53,51.21 92.61,49.77 75.33,42.57 		"/>
		<polygon class="st98" points="92.61,44.01 92.61,39.69 75.33,42.57 		"/>
		<polygon class="st99" points="81.09,71.37 88.29,55.53 79.65,56.97 		"/>
		<polygon class="st100" points="66.69,33.93 66.69,16.65 66.69,16.65 62.37,16.65 49.41,16.65 60.93,33.93 		"/>
		<polygon class="st101" points="75.33,33.93 71.01,25.29 71.01,25.29 71.01,25.29 66.69,16.65 66.69,33.93 		"/>
		<polygon class="st39" points="49.41,33.93 60.93,33.93 49.41,16.65 49.41,26.73 		"/>
		<polygon class="st102" points="89.73,29.61 83.97,25.29 79.65,23.85 75.33,33.93 		"/>
		<polygon class="st103" points="75.33,42.57 89.73,29.61 75.33,33.93 		"/>
		<polygon class="st104" points="67.41,107.73 68.13,107.37 67.41,107.73 64.17,110.43 72.45,114.57 69.57,105.93 		"/>
		<polygon class="st105" points="60.93,121.77 68.13,120.33 60.93,113.13 		"/>
		<polygon class="st106" points="63.96,110.6 68.13,120.33 72.45,114.57 64.17,110.43 		"/>
		<polygon class="st107" points="60.93,113.13 68.13,120.33 63.96,110.6 		"/>
		<polygon class="st108" points="73.89,139.05 68.13,133.29 66.55,130.91 63.81,140.49 		"/>
		<polygon class="st109" points="63.81,140.49 66.55,130.91 66.34,130.6 53.73,137.61 		"/>
		<polygon class="st110" points="75.33,105.93 69.57,105.93 72.45,114.57 75.33,107.37 78.21,100.17 79.65,95.85 69.57,105.93 		"/>
		<polygon class="st111" points="79.65,81.45 78.21,81.45 78.21,84.33 79.41,84.33 79.65,82.89 81.09,78.57 78.21,81.45 		"/>
		<polygon class="st51" points="76.77,85.77 78.21,91.53 79.41,84.33 78.21,84.33 		"/>
		<polygon class="st112" points="81.09,78.57 83.97,71.37 81.09,71.37 		"/>
		<polygon class="st113" points="78.21,81.45 81.09,78.57 78.21,78.57 		"/>
		<polygon class="st114" points="63.81,147.69 68.51,143.66 68.13,143.37 68.51,143.66 73.89,139.05 63.81,140.49 		"/>
		<polygon class="st115" points="69.57,105.93 79.65,95.85 71.01,100.17 		"/>
		<polygon class="st51" points="71.01,92.97 78.21,91.53 76.77,85.77 		"/>
		<polygon class="st51" points="79.65,95.85 78.21,91.53 71.01,92.97 		"/>
		<polygon class="st116" points="71.01,100.17 79.65,95.85 71.01,92.97 		"/>
		<polygon class="st117" points="11.97,128.97 7.65,127.53 7.65,134.73 		"/>
		<polygon class="st118" points="-0.53,134.54 -0.75,134.77 -0.75,141.91 7.65,134.73 		"/>
		<polygon class="st119" points="7.65,127.53 3.52,130.28 -0.53,134.54 7.65,134.73 		"/>
		<polygon class="st120" points="13.41,118.89 11.97,118.89 11.97,123.21 		"/>
		<polygon class="st121" points="23.49,118.89 13.41,118.89 20.61,126.09 		"/>
		<polygon class="st120" points="11.97,118.89 7.65,123.21 11.97,123.21 		"/>
		<polygon class="st2" points="85.41,154.89 85.8,154.56 73.89,147.69 73.89,160.59 73.94,160.59 81.09,152.01 73.94,160.59 
			74.04,160.59 81.09,157.77 		"/>
		<polygon class="st122" points="26.37,156.33 27.09,156.33 30.69,152.01 23.49,152.01 23.49,160.65 27.09,156.33 		"/>
		<polygon class="st123" points="36.45,157.77 33.57,156.33 23.49,160.65 40.77,159.21 		"/>
		<polygon class="st124" points="7.65,91.53 13.41,97.29 17.73,91.53 		"/>
		<polygon class="st125" points="33.57,51.21 9.09,52.65 32.13,55.53 		"/>
		<polygon class="st126" points="10.53,69.93 11.68,71.37 11.97,71.37 11.89,71.64 16.29,77.13 23.49,68.49 9.09,69.93 6.21,71.37 
			11.43,71.37 		"/>
		<polygon class="st68" points="9.09,59.85 9.09,68.49 9.09,69.93 23.49,68.49 		"/>
		<polygon class="st127" points="37.89,16.65 36.45,16.65 27.81,16.65 33.57,26.73 		"/>
		<polygon class="st128" points="11.97,87.21 6.21,81.45 4.77,75.69 6.21,82.89 7.65,91.53 11.97,87.21 		"/>
		<polygon class="st129" points="23.49,99.07 13.41,97.29 23.49,111.69 		"/>
		<polygon class="st130" points="23.49,98.73 17.73,95.85 13.41,97.29 23.49,99.07 		"/>
		<polygon class="st131" points="11.43,71.37 6.21,71.37 4.77,75.69 11.58,71.61 		"/>
		<polygon class="st132" points="17.73,91.53 13.41,97.29 17.73,95.85 		"/>
		<polygon class="st133" points="23.49,111.69 13.41,97.29 13.41,118.89 23.49,111.77 		"/>
		<polygon class="st134" points="11.71,71.82 11.58,71.61 4.77,75.69 6.21,81.45 		"/>
		<polygon class="st135" points="23.49,111.77 13.41,118.89 23.49,118.89 		"/>
		<polygon class="st136" points="11.97,87.21 7.65,91.53 17.73,91.53 		"/>
		<polygon class="st137" points="11.97,87.21 17.73,91.53 17.73,81.45 		"/>
		<polygon class="st138" points="23.61,111.69 23.49,111.77 23.49,118.89 42.21,111.69 		"/>
		<polygon class="st139" points="17.73,134.73 17.73,134.73 17.73,134.73 19.17,136.17 23.49,141.93 29.25,144.81 20.61,137.61 
			20.61,126.09 11.97,128.97 14.85,131.85 		"/>
		<polygon class="st140" points="43.87,114.57 43.65,114.57 43.87,114.57 37.89,101.61 23.61,111.69 42.21,111.69 23.49,118.89 
			45.87,118.89 		"/>
		<polygon class="st141" points="11.97,141.93 7.65,141.93 7.65,152.01 		"/>
		<polygon class="st142" points="23.49,141.93 23.49,152.01 30.69,152.01 27.81,149.13 		"/>
		<polygon class="st143" points="23.49,111.69 23.49,111.77 23.61,111.69 		"/>
		<polygon class="st144" points="46.05,119.29 45.87,118.89 23.49,118.89 37.89,126.09 		"/>
		<polygon class="st145" points="7.65,152.01 23.49,152.01 17.33,145.85 		"/>
		<polygon class="st146" points="14.85,131.85 11.97,128.97 7.65,134.73 17.73,134.73 		"/>
		<polygon class="st147" points="7.63,152.01 13.41,156.33 23.49,152.01 7.65,152.01 		"/>
		<polygon class="st148" points="17.33,145.85 23.49,152.01 23.49,141.93 		"/>
		<polygon class="st149" points="23.49,68.49 16.29,77.13 19.17,78.57 		"/>
		<polygon class="st150" points="17.73,81.45 11.8,71.96 9.09,81.45 		"/>
		<polygon class="st151" points="33.57,51.21 32.13,55.53 43.65,55.53 		"/>
		<polygon class="st152" points="22.05,77.13 23.49,68.49 19.17,78.57 		"/>
		<polygon class="st153" points="35.01,61.29 30.69,64.17 23.49,68.49 43.65,64.17 		"/>
		<polygon class="st75" points="43.65,55.53 35.01,61.29 43.65,64.17 		"/>
		<polygon class="st154" points="32.13,55.53 35.01,61.29 43.65,55.53 		"/>
		<polygon class="st155" points="33.57,71.37 23.49,68.49 22.05,77.13 		"/>
		<polygon class="st156" points="43.65,64.17 23.49,68.49 37.89,69.93 		"/>
		<polygon class="st157" points="37.89,69.93 23.49,68.49 33.57,71.37 		"/>
		<polygon class="st158" points="11.8,71.96 11.71,71.82 6.21,81.45 9.09,81.45 		"/>
		<polygon class="st159" points="9.09,81.45 6.21,81.45 11.97,87.21 11.97,87.21 17.73,81.45 		"/>
		<polygon class="st160" points="63.81,147.69 73.89,147.69 68.51,143.66 		"/>
		<polygon class="st161" points="59.49,147.69 59.49,153.45 59.49,154.89 60.93,154.17 60.93,154.17 73.89,147.69 63.81,147.69 		
			"/>
		<polygon class="st162" points="36.45,94.41 23.49,98.73 23.49,99.07 37.89,101.61 		"/>
		<polygon class="st163" points="37.89,126.09 20.61,126.09 20.61,137.61 		"/>
		<polygon class="st164" points="19.17,78.57 16.29,77.13 11.89,71.64 11.8,71.96 17.73,81.45 17.73,91.53 17.73,95.85 19.17,95.85 
					"/>
		<polygon class="st165" points="37.89,101.61 47.97,92.97 20.61,95.85 19.17,95.85 17.73,95.85 23.49,98.73 36.45,94.41 		"/>
		<polygon class="st166" points="48.77,49.13 43.65,49.77 33.57,51.21 43.65,55.53 		"/>
		<polygon class="st167" points="23.49,118.89 20.61,126.09 37.89,126.09 		"/>
		<polygon class="st168" points="37.89,101.61 23.49,99.07 23.49,111.69 23.61,111.69 		"/>
		<polygon class="st169" points="73.89,147.69 73.89,139.05 68.51,143.66 		"/>
		<polygon class="st170" points="53.73,74.25 53.73,71.37 49.41,72.81 50.85,72.81 		"/>
		<polygon class="st171" points="56.61,74.25 55.17,71.37 53.73,74.25 		"/>
		<polygon class="st172" points="49.41,72.81 49.41,69.93 45.09,71.37 42.21,72.81 47.97,72.81 		"/>
		<path class="st173" d="M49.41,69.93c-0.93,0-2.11,0-2.88,0c-1.44,0-4.32,0-4.32,0l2.88,1.44L49.41,69.93z"/>
		<path class="st174" d="M53.73,71.37v2.88l1.44-2.88l-4.32-1.44c0,0-0.63,0-1.44,0v2.88L53.73,71.37z"/>
		<polygon class="st175" points="42.21,69.93 42.21,72.81 45.09,71.37 		"/>
		<polygon class="st176" points="78.21,78.57 81.19,78.57 79.7,75.51 		"/>
		<polygon class="st177" points="76.77,75.69 72.45,74.25 72.45,77.13 		"/>
		<polygon class="st178" points="69.57,77.13 72.45,74.25 69.57,74.25 		"/>
		<polygon class="st179" points="72.45,77.13 73.89,77.13 78.21,78.57 76.77,75.69 		"/>
		<polygon class="st180" points="71.01,77.13 72.45,77.13 72.45,74.25 69.57,77.13 		"/>
		<polygon class="st181" points="72.45,74.25 76.77,75.69 78.21,78.57 79.65,75.69 73.89,74.25 		"/>
		<polygon class="st182" points="69.57,74.25 65.25,77.13 69.57,77.13 		"/>
		<polygon class="st183" points="46.53,81.45 47.97,81.45 49.41,81.45 49.41,78.57 		"/>
		<polygon class="st184" points="49.41,78.57 49.41,81.45 52.29,78.57 		"/>
		<polygon class="st185" points="46.53,78.57 46.53,81.45 49.41,78.57 		"/>
		<polygon class="st186" points="52.29,78.57 52.29,81.45 53.73,80.01 		"/>
		<polygon class="st187" points="46.53,78.57 49.41,78.57 52.29,78.57 46.53,77.13 		"/>
		<polygon class="st188" points="49.41,81.45 52.29,81.45 52.29,78.57 		"/>
		<polygon class="st189" points="47.97,75.69 46.53,75.69 45.09,75.69 46.53,77.13 		"/>
		<polygon class="st190" points="47.97,75.69 46.53,77.13 52.29,78.57 50.85,77.13 		"/>
		<polygon class="st191" points="43.65,80.01 40.77,81.45 43.65,81.45 46.53,81.45 46.53,78.57 		"/>
		<polygon class="st192" points="40.77,77.13 40.77,75.69 37.89,77.13 		"/>
		<polygon class="st193" points="40.77,75.69 37.89,75.69 36.45,75.69 37.89,77.13 		"/>
		<polygon class="st194" points="35.01,77.13 36.45,78.57 37.89,80.01 37.89,77.13 		"/>
		<polygon class="st195" points="36.45,75.69 33.57,75.69 35.01,77.13 		"/>
		<polygon class="st196" points="75.33,84.33 78.21,84.33 78.21,81.45 76.77,82.89 		"/>
		<polygon class="st197" points="71.01,85.77 72.45,85.77 72.45,84.33 		"/>
		<polygon class="st47" points="72.45,80.01 73.89,81.45 78.21,81.45 73.89,80.01 		"/>
		<polygon class="st111" points="76.77,82.89 78.21,81.45 73.89,81.45 		"/>
		<polygon class="st198" points="66.69,81.45 66.69,84.33 68.13,82.89 68.13,81.45 		"/>
		<polygon class="st199" points="72.45,85.77 75.33,84.33 72.45,84.33 		"/>
		<polygon class="st58" points="66.69,84.33 66.69,81.45 66.69,80.01 63.81,82.89 		"/>
		<polygon class="st200" points="76.77,82.89 73.89,81.45 73.89,82.89 		"/>
		<polygon class="st201" points="68.13,81.45 69.57,80.01 66.69,80.01 66.69,81.45 		"/>
		<polygon class="st202" points="72.45,84.33 75.33,84.33 73.89,82.89 		"/>
		<polygon class="st203" points="75.33,84.33 76.77,82.89 73.89,82.89 		"/>
		<polygon class="st197" points="71.01,84.33 69.57,84.33 68.13,82.89 66.69,84.33 71.01,85.77 72.45,84.33 		"/>
		<polygon class="st204" points="76.77,85.77 78.21,84.33 75.33,84.33 		"/>
		<polygon class="st205" points="72.45,85.77 73.89,85.77 76.77,85.77 75.33,84.33 		"/>
		<polygon class="st206" points="62.37,97.29 68.13,97.29 65.25,92.97 62.37,97.29 		"/>
		<polygon class="st207" points="62.37,97.29 65.25,92.97 58.05,97.29 		"/>
		<polygon class="st208" points="55.17,92.97 47.97,92.97 49.41,95.85 		"/>
		<polygon class="st209" points="59.49,85.77 62.37,78.57 58.05,78.57 		"/>
		<polygon class="st210" points="63.81,85.77 62.37,78.57 59.49,85.77 		"/>
		<polygon class="st211" points="63.81,100.17 65.25,98.73 68.13,97.29 62.37,97.29 		"/>
		<polygon class="st212" points="49.41,95.85 52.29,95.85 53.73,95.85 55.17,92.97 		"/>
		<polygon class="st213" points="53.73,85.77 53.21,85.84 52.29,87.21 49.41,91.53 47.97,92.97 55.17,92.97 		"/>
		<polygon class="st55" points="62.37,78.57 62.37,75.69 58.05,78.57 		"/>
		<polygon class="st214" points="53.21,85.84 53.73,85.77 53.57,85.29 		"/>
		<polygon class="st215" points="55.17,92.97 65.25,92.97 63.81,85.77 		"/>
		<polygon class="st206" points="59.49,85.77 53.73,85.77 55.17,92.97 63.81,85.77 		"/>
		<polygon class="st216" points="53.57,85.29 53.73,85.77 53.73,85.05 		"/>
		<polygon class="st216" points="58.05,78.57 55.17,82.89 53.73,85.05 53.73,85.77 59.49,85.77 		"/>
		<polygon class="st217" points="49.74,111.58 53.73,114.57 53.73,110.25 		"/>
		<polygon class="st218" points="50.85,101.61 53.73,105.93 59.49,104.49 55.17,103.05 		"/>
		<polygon class="st219" points="62.37,107.37 63.81,107.37 66.69,107.37 63.81,104.49 58.05,107.37 		"/>
		<polygon class="st220" points="55.17,103.05 59.49,104.49 56.61,101.61 50.85,101.61 		"/>
		<polygon class="st221" points="53.73,110.25 53.73,114.57 58.05,110.25 56.61,110.25 		"/>
		<polygon class="st222" points="63.81,104.49 59.49,104.49 58.05,107.37 		"/>
		<polygon class="st223" points="53.73,106.29 58.05,107.37 59.49,104.49 53.73,105.93 		"/>
		<polygon class="st224" points="53.73,110.25 56.61,110.25 58.05,110.25 62.37,110.25 59.49,108.81 		"/>
		<polygon class="st225" points="58.05,107.37 59.49,108.81 63.81,107.37 62.37,107.37 		"/>
		<polygon class="st226" points="47.97,107.36 53.73,110.3 53.73,106.25 53.01,106.07 		"/>
		<polygon class="st227" points="58.05,107.37 53.73,106.29 53.73,110.25 		"/>
		<polygon class="st228" points="52.29,105.93 46.53,104.49 43.65,103.05 47.97,107.37 53.01,106.11 		"/>
		<polygon class="st229" points="46.53,104.49 50.85,101.61 53.73,105.93 53.73,106.29 		"/>
		<polygon class="st230" points="46.53,104.49 50.85,101.61 49.41,101.61 40.77,101.61 39.33,101.61 43.65,103.05 		"/>
		<polygon class="st230" points="39.33,101.61 37.89,101.61 40.77,104.49 		"/>
		<polygon class="st231" points="60.93,113.13 67.41,107.73 62.37,110.25 		"/>
		<polygon class="st232" points="53.73,114.57 60.93,113.13 58.05,110.25 		"/>
		<polygon class="st233" points="58.05,110.25 60.93,113.13 62.37,110.25 		"/>
		<polygon class="st234" points="20.61,46.89 9.09,52.65 33.57,51.21 		"/>
		<polygon class="st235" points="27.81,33.93 33.57,26.73 27.81,16.65 27.81,25.29 		"/>
		<polygon class="st236" points="32.93,40.33 33.57,41.13 33.57,39.69 		"/>
		<polygon class="st236" points="33.57,39.69 33.57,26.73 27.81,33.93 32.93,40.33 		"/>
		<polygon class="st237" points="37.89,16.65 42.21,26.73 49.41,33.93 39.33,33.93 33.57,26.73 		"/>
		<polygon class="st238" points="42.21,41.13 49.41,33.93 39.33,33.93 		"/>
		<polygon class="st86" points="66.69,42.57 60.93,33.93 49.41,48.33 		"/>
		<polygon class="st239" points="43.65,78.57 46.53,77.13 45.09,75.69 43.65,76.41 		"/>
		<polygon class="st240" points="43.65,78.57 45.09,78.57 46.53,78.57 46.53,77.13 		"/>
		<polygon class="st241" points="36.45,75.69 35.01,77.13 37.89,77.13 		"/>
		<polygon class="st242" points="73.89,82.89 73.89,81.45 71.01,81.45 		"/>
		<polygon class="st243" points="71.01,84.33 72.45,84.33 71.01,81.45 69.57,84.33 		"/>
		<polygon class="st244" points="69.57,81.45 69.57,80.01 68.13,81.45 		"/>
		<polygon class="st245" points="68.13,82.89 71.01,81.45 69.57,81.45 68.13,81.45 		"/>
		<polygon class="st246" points="69.57,80.01 73.89,81.45 72.45,80.01 71.01,80.01 		"/>
		<polygon class="st247" points="69.57,84.33 71.01,81.45 68.13,82.89 		"/>
		<polygon class="st248" points="73.89,82.89 71.01,81.45 72.45,84.33 		"/>
		<polygon class="st249" points="69.57,81.45 71.01,81.45 73.89,81.45 69.57,80.01 		"/>
		<polygon class="st250" points="59.49,108.81 58.05,107.37 53.73,110.25 		"/>
		<polygon class="st251" points="62.37,110.25 63.81,107.37 59.49,108.81 		"/>
		<polygon class="st252" points="43.65,55.53 43.65,64.17 55.17,64.17 		"/>
		<polygon class="st253" points="53.73,120.33 53.73,127.53 60.93,121.77 53.73,114.57 		"/>
		<polygon class="st254" points="7.65,134.73 -0.75,141.91 7.65,141.93 		"/>
		<polygon class="st255" points="13.41,156.33 23.49,160.65 23.49,152.01 		"/>
		<polygon class="st4" points="37.89,137.61 50.85,126.09 37.89,126.09 		"/>
		<polyline class="st89" points="30.69,87.21 30.69,78.57 35.01,77.13 		"/>
		<polyline class="st194" points="37.89,77.13 37.89,80.01 40.77,78.57 		"/>
		<polyline class="st7" points="33.42,156.24 37.85,156.24 40.8,159.21 36.37,157.73 		"/>
		<polygon class="st89" points="33.6,71.28 33.6,75.6 30.72,78.48 		"/>
		<polyline class="st87" points="49.43,72.72 46.53,75.69 50.88,75.69 		"/>
		<polygon class="st87" points="65.28,77.04 62.4,75.6 66.72,71.28 		"/>
		<polyline class="st87" points="73.92,74.25 69.5,74.25 66.56,71.28 		"/>
		<polyline class="st87" points="66.72,79.92 72.48,77.04 69.6,77.04 		"/>
		<polygon class="st112" points="81.12,78.48 79.68,75.45 81.12,71.28 		"/>
		<polyline class="st28" points="71.04,92.88 67.99,97.28 70.94,100.11 71.04,100.21 		"/>
		<polyline class="st256" points="85.83,154.47 85.9,154.55 96.24,148.72 93.92,147.73 		"/>
		<polygon class="st129" points="23.52,111.6 42.24,111.6 37.92,101.52 		"/>
		<polygon class="st19" points="37.92,101.61 48,92.88 49.44,95.79 49.44,101.61 		"/>
		<polygon class="st193" points="37.89,77.13 40.77,78.57 40.77,77.13 		"/>
		<polyline class="st257" points="37.89,77.13 40.77,78.57 37.89,77.13 40.77,78.57 37.89,80.01 40.77,80.01 40.77,78.57 
			37.89,77.13 37.89,80.01 37.89,77.13 40.77,78.57 40.77,81.45 46.53,78.57 		"/>
		<polyline class="st77" points="32.13,55.53 35.01,61.29 23.91,68.61 23.49,68.49 		"/>
		<polyline class="st164" points="11.43,71.37 11.97,71.37 11.8,71.96 		"/>
		<polyline class="st193" points="43.65,76.41 43.65,75.69 45.09,75.69 		"/>
		<polyline class="st237" points="14.85,26.46 27.81,16.65 27.81,25.29 20.61,33.93 20.61,41.13 9.09,41.13 14.85,26.73 		"/>
		<polyline class="st237" points="20.61,41.13 27.81,33.93 27.81,25.29 20.61,33.93 		"/>
		<path class="st258" d="M89.73,29.61"/>
		<polyline class="st258" points="89.73,29.61 92.61,39.69 75.33,42.57 		"/>
		<polyline class="st125" points="9.09,52.65 9.09,59.85 23.49,68.49 32.13,55.53 9.09,52.65 9.09,41.13 20.61,46.89 		"/>
		<polyline class="st259" points="80.85,71.64 83.7,71.73 92.34,50.13 88.02,55.89 		"/>
		<polyline class="st260" points="66.69,16.65 79.65,23.85 75.33,33.93 		"/>
		<polyline class="st173" points="42.21,72.81 36.45,72.81 37.89,69.93 42.21,69.93 		"/>
		<polygon class="st90" points="37.89,69.93 36.45,72.81 33.57,71.37 		"/>
		<polygon class="st185" points="40.77,80.01 40.77,81.45 37.89,80.01 		"/>
		<polyline class="st261" points="11.97,141.93 7.65,141.93 0,141.93 7.65,152.01 		"/>
		<polyline class="st262" points="92.34,50.13 92.61,49.77 82.53,51.21 79.65,56.97 88.29,55.53 92.61,49.77 		"/>
		<polygon class="st263" points="37.89,147.69 37.89,137.61 53.73,137.61 46.71,143.22 		"/>
		<polygon class="st264" points="7.65,127.53 7.65,123.21 11.97,123.21 11.97,128.97 		"/>
		<polygon class="st265" points="20.61,126.09 11.97,128.97 11.97,123.21 13.41,118.89 		"/>
		<polygon class="st266" points="68.13,120.33 65.25,128.97 60.93,128.97 60.93,121.77 		"/>
		<polygon class="st267" points="63.81,107.37 66.69,107.37 67.41,107.73 62.37,110.25 		"/>
		<path class="st268" d="M29.25,144.81"/>
		<polygon class="st269" points="19.17,95.85 20.61,95.85 22.05,88.65 22.05,77.13 19.17,78.57 		"/>
		<polygon class="st270" points="40.77,75.69 43.65,75.69 43.65,78.08 40.77,77.61 		"/>
	</g>
	<polyline class="st271" points="65.25,128.97 66.34,130.6 53.73,137.61 53.73,128.97 	"/>
	<path class="st272" d="M37.85,156.24"/>
	<polygon class="st221" points="39.33,101.61 40.77,104.52 49.74,111.69 53.73,110.35 46.53,105.98 43.65,103.07 	"/>
	<path class="st221" d="M43.65,103.05"/>
	<path class="st221" d="M43.65,103.05"/>
	<polygon class="st273" points="39.33,101.61 46.65,106.05 43.72,103.09 	"/>
	<polyline class="st274" points="62.37,97.29 63.81,100.17 60.93,101.61 59.49,101.61 56.61,100.17 53.73,95.85 	"/>
	<polygon class="st275" points="53.73,153.45 49.41,156.33 53.34,158.95 58.05,157.77 59.49,154.89 59.49,153.45 	"/>
	<polygon class="st145" points="23.49,160.65 30.69,152.01 33.57,156.33 	"/>
	<polyline class="st145" points="73.94,160.55 21.4,160.65 51.72,158.31 57.39,155.97 	"/>
	<polygon class="st114" points="58.77,156.33 59.49,154.89 73.89,147.69 61.65,157.21 	"/>
	<path class="st276" d="M52.13,158.14"/>
	<polygon class="st7" points="37.85,156.24 49.41,147.69 37.89,147.69 	"/>
	<polygon class="st277" points="49.41,147.69 49.41,156.33 37.85,156.24 	"/>
	<polygon class="st139" points="37.85,156.24 49.4,156.24 52.13,158.11 51.71,158.28 40.73,159.21 	"/>
	<polygon class="st17" points="49.41,147.69 49.4,156.33 53.73,153.51 59.49,147.69 	"/>
	<polygon class="st278" points="56.61,101.61 59.49,104.49 63.81,104.49 66.69,107.37 67.41,107.73 69.57,105.93 	"/>
	<polygon class="st261" points="11.97,141.93 17.73,134.73 7.65,134.73 	"/>
	<polygon class="st279" points="7.65,134.73 11.97,141.93 7.65,141.93 	"/>
	<polygon class="st280" points="27.81,149.13 29.25,144.81 23.49,141.93 	"/>
	<polygon class="st281" points="27.81,149.13 30.69,152.01 37.89,147.69 29.25,144.81 	"/>
	<polygon class="st282" points="37.89,147.69 37.85,156.24 33.57,156.33 30.69,152.01 	"/>
	<polygon class="st283" points="53.73,95.85 65.25,92.97 55.17,92.97 	"/>
	<polygon class="st284" points="37.89,16.65 49.41,16.65 49.41,33.93 42.21,26.73 	"/>
	<polygon class="st285" points="53.73,95.85 59.04,96.73 65.25,92.97 	"/>
</g>
</svg>
