<?xml version="1.0" encoding="utf-8"?>
<!-- Generator: Adobe Illustrator 24.1.2, SVG Export Plug-In . SVG Version: 6.00 Build 0)  -->
<svg version="1.1" id="Poly" xmlns="http://www.w3.org/2000/svg" xmlns:xlink="http://www.w3.org/1999/xlink" x="0px" y="0px"
	 viewBox="0 0 96.96 160.56" style="enable-background:new 0 0 96.96 160.56;" xml:space="preserve">
<style type="text/css">
	.st0{fill:#8D919F;}
	.st1{fill:#777C89;}
	.st2{fill:#593D2D;}
	.st3{fill:#3F2A1F;}
	.st4{fill:#684635;}
	.st5{fill:#543829;}
	.st6{fill:#583D2F;}
	.st7{fill:#664739;}
	.st8{fill:#72503D;}
	.st9{fill:#17120E;}
	.st10{fill:#624434;}
	.st11{fill:#7D5642;}
	.st12{fill:#322119;}
	.st13{fill:#654434;}
	.st14{fill:#4E3428;}
	.st15{fill:#211713;}
	.st16{fill:#583C30;}
	.st17{fill:#825A48;}
	.st18{fill:#3D312E;}
	.st19{fill:#956E5B;}
	.st20{fill:#CFA799;}
	.st21{fill:#674E44;}
	.st22{fill:#876052;}
	.st23{fill:#957268;}
	.st24{fill:#987065;}
	.st25{fill:#886358;}
	.st26{fill:#5D483B;}
	.st27{fill:#8A645C;}
	.st28{fill:#30231F;}
	.st29{fill:#070607;}
	.st30{fill:#0B0C0E;}
	.st31{fill:#141519;}
	.st32{fill:#BA9285;}
	.st33{fill:#101011;}
	.st34{fill:#8A685B;}
	.st35{fill:#AB8276;}
	.st36{fill:#91716B;}
	.st37{fill:#151416;}
	.st38{fill:#9D776B;}
	.st39{fill:#100D0C;}
	.st40{fill:#121213;}
	.st41{fill:#5D4235;}
	.st42{fill:#050405;}
	.st43{fill:#0F0F11;}
	.st44{fill:#131315;}
	.st45{fill:#060506;}
	.st46{fill:#0D0C0E;}
	.st47{fill:#161616;}
	.st48{fill:#5A443D;}
	.st49{fill:#735D56;}
	.st50{fill:#372824;}
	.st51{fill:#7D655C;}
	.st52{fill:#523B31;}
	.st53{fill:#563D2D;}
	.st54{fill:#201A16;}
	.st55{fill:#4D3A33;}
	.st56{fill:#543C32;}
	.st57{fill:#1C1716;}
	.st58{fill:#38281F;}
	.st59{fill:#89736E;}
	.st60{fill:#AF8171;}
	.st61{fill:#5A3E36;}
	.st62{fill:#0C0909;}
	.st63{fill:#64666F;}
	.st64{fill:#7B7D88;}
	.st65{fill:#54565E;}
	.st66{fill:#6C4E42;}
	.st67{fill:#454850;}
	.st68{fill:#1F2026;}
	.st69{fill:#554036;}
	.st70{fill:#2E1F1B;}
	.st71{fill:#5B463D;}
	.st72{fill:#8F6C5C;}
	.st73{fill:#513729;}
	.st74{fill:#734F3E;}
	.st75{fill:#696A74;}
	.st76{fill:#5E6167;}
	.st77{fill:#5F6168;}
	.st78{fill:#0D0D0D;}
	.st79{fill:#969BAA;}
	.st80{fill:#74798A;}
	.st81{fill:#797D8A;}
	.st82{fill:#82848F;}
	.st83{fill:#0A0909;}
	.st84{fill:#725F5D;}
	.st85{fill:#1F1E21;}
	.st86{fill:#202023;}
	.st87{fill:#462F23;}
	.st88{fill:#9B7366;}
	.st89{fill:#9D786B;}
	.st90{fill:#785A4E;}
	.st91{fill:#AF8678;}
	.st92{fill:#9B7264;}
	.st93{fill:#3F291E;}
	.st94{fill:#77584F;}
	.st95{fill:#7A594E;}
	.st96{fill:#251912;}
	.st97{fill:#AC8477;}
	.st98{fill:#A98478;}
	.st99{fill:#9D786C;}
	.st100{fill:#523F35;}
	.st101{fill:#0F0F0F;}
	.st102{fill:#AE887A;}
	.st103{fill:#17171A;}
	.st104{fill:#35241B;}
	.st105{fill:#956E60;}
	.st106{fill:#36271F;}
	.st107{fill:#523830;}
	.st108{fill:#251913;}
	.st109{fill:#9E7261;}
	.st110{fill:#8B665A;}
	.st111{fill:#31211A;}
	.st112{fill:#A37566;}
	.st113{fill:#2B2A2F;}
	.st114{fill:#131415;}
	.st115{fill:#0D0D0E;}
	.st116{fill:#0A0A0A;}
	.st117{fill:#161515;}
	.st118{fill:#383C46;}
	.st119{fill:#07070A;}
	.st120{fill:#17181C;}
	.st121{fill:#2F3137;}
	.st122{fill:#151619;}
	.st123{fill:#25262E;}
	.st124{fill:#4B3732;}
	.st125{fill:#806966;}
	.st126{fill:#61514A;}
	.st127{fill:#53433B;}
	.st128{fill:#6F5A58;}
	.st129{fill:#888D9B;}
	.st130{fill:#755C55;}
	.st131{fill:#665350;}
	.st132{fill:#53413D;}
	.st133{fill:#594439;}
	.st134{fill:#2D2723;}
	.st135{fill:#C5A198;}
	.st136{fill:#100F0F;}
	.st137{fill:#47372C;}
	.st138{fill:#51545B;}
	.st139{fill:#4E372C;}
	.st140{fill:#AB806E;}
	.st141{fill:#878C9B;}
	.st142{fill:#5E5F6A;}
	.st143{fill:#8D93A1;}
	.st144{fill:#8E94A4;}
	.st145{fill:#6D7282;}
	.st146{fill:#6A4C41;}
	.st147{fill:#755E58;}
	.st148{fill:#796667;}
	.st149{fill:#6F737E;}
	.st150{fill:#7F808D;}
	.st151{fill:#32353A;}
	.st152{fill:#727582;}
	.st153{fill:#B58C83;}
	.st154{fill:#1C1B1B;}
	.st155{fill:#232122;}
	.st156{fill:#31353F;}
	.st157{fill:#886A62;}
	.st158{fill:#5A4841;}
	.st159{fill:#624E46;}
	.st160{fill:#1F0F0A;}
	.st161{fill:#6F4C43;}
	.st162{fill:#735E57;}
	.st163{fill:#3B2016;}
	.st164{fill:#24262F;}
	.st165{fill:#523C36;}
	.st166{fill:#846157;}
	.st167{fill:#725041;}
	.st168{fill:#46352A;}
	.st169{fill:#775242;}
	.st170{fill:#785242;}
	.st171{fill:#A37661;}
	.st172{fill:#8F8F97;}
	.st173{fill:#AB7F69;}
	.st174{fill:#878996;}
	.st175{fill:#8F6554;}
	.st176{fill:#986B57;}
	.st177{fill:#4D362C;}
	.st178{fill:#6F747E;}
	.st179{fill:#737782;}
	.st180{fill:#3F2F26;}
	.st181{fill:#584438;}
	.st182{fill:#64676F;}
	.st183{fill:#9395A1;}
	.st184{fill:#707481;}
	.st185{fill:#5D5F65;}
	.st186{fill:#2E2B2F;}
	.st187{fill:#2D1810;}
	.st188{fill:#56433B;}
	.st189{fill:#191919;}
	.st190{fill:#7A5C4F;}
	.st191{fill:#6E5346;}
	.st192{fill:#614B44;}
	.st193{fill:#85695F;}
	.st194{fill:#886B62;}
	.st195{fill:#5A362A;}
	.st196{fill:#684133;}
	.st197{fill:#7C818F;}
	.st198{fill:#7E828E;}
	.st199{fill:#707480;}
	.st200{fill:#705242;}
	.st201{fill:#644537;}
	.st202{fill:#594943;}
	.st203{fill:#685045;}
	.st204{fill:#6D4E44;}
	.st205{fill:#402E25;}
	.st206{fill:#71523F;}
	.st207{fill:#717684;}
	.st208{fill:#261A14;}
	.st209{fill:#2C1F18;}
	.st210{fill:#16110E;}
	.st211{fill:#2F2928;}
	.st212{fill:#2A1E1A;}
	.st213{fill:#3A2F2E;}
	.st214{fill:#2B2521;}
	.st215{fill:#181717;}
	.st216{fill:#231B18;}
	.st217{fill:#181514;}
	.st218{fill:#140F0B;}
	.st219{fill:#1F1A19;}
	.st220{fill:#221813;}
	.st221{fill:#5F4741;}
	.st222{fill:#5D4644;}
	.st223{fill:#43332F;}
	.st224{fill:#644942;}
	.st225{fill:#52413B;}
	.st226{fill:#402A25;}
	.st227{fill:#2D2623;}
	.st228{fill:#151212;}
	.st229{fill:#332721;}
	.st230{fill:#151312;}
	.st231{fill:#4C352E;}
	.st232{fill:#16110F;}
	.st233{fill:#1A130E;}
	.st234{fill:#48352E;}
	.st235{fill:#231812;}
	.st236{fill:#1F1A17;}
	.st237{fill:#68504C;}
	.st238{fill:#3B2C27;}
	.st239{fill:#514041;}
	.st240{fill:#564B46;}
	.st241{fill:#261D1A;}
	.st242{fill:#8E7F7A;}
	.st243{fill:#584C48;}
	.st244{fill:#544644;}
	.st245{fill:#604E4A;}
	.st246{fill:#B19A9B;}
	.st247{fill:#633F32;}
	.st248{fill:#B58879;}
	.st249{fill:#90695E;}
	.st250{fill:#B08576;}
	.st251{fill:#79523E;}
	.st252{fill:#C09384;}
	.st253{fill:#936D60;}
	.st254{fill:#BB908A;}
	.st255{fill:#AF8174;}
	.st256{fill:#6C4A39;}
	.st257{fill:#5E4131;}
	.st258{fill:#B79089;}
	.st259{fill:#614232;}
	.st260{fill:#B68E85;}
	.st261{fill:#9B6758;}
	.st262{fill:#B28B85;}
	.st263{fill:#AF7F71;}
	.st264{fill:#865748;}
	.st265{fill:#89676D;}
	.st266{fill:#523F3B;}
	.st267{fill:#483D3B;}
	.st268{fill:#1C120F;}
	.st269{fill:#B1828D;}
	.st270{fill:#3C2E2A;}
	.st271{fill:#402C27;}
	.st272{fill:#5C4743;}
	.st273{fill:#B79A9A;}
	.st274{fill:#B09B8B;}
	.st275{fill:#665356;}
	.st276{fill:#C3AD97;}
	.st277{fill:#835D66;}
	.st278{fill:#1E1511;}
	.st279{fill:#523D37;}
	.st280{fill:#4B3A35;}
	.st281{fill:#846566;}
	.st282{fill:#6A5452;}
	.st283{fill:#45342D;}
	.st284{fill:#967076;}
	.st285{fill:#92646F;}
	.st286{fill:#372720;}
	.st287{fill:#131314;}
	.st288{fill:#33353D;}
	.st289{fill:#19191C;}
	.st290{fill:#19181A;}
	.st291{fill:#121214;}
	.st292{fill:#171413;}
	.st293{fill:#110C0B;}
	.st294{fill:#130D0C;}
	.st295{fill:#2B211C;}
	.st296{fill:#3A2925;}
	.st297{fill:#292728;}
	.st298{fill:#17100D;}
	.st299{fill:#130E0F;}
	.st300{fill:#140F0F;}
	.st301{fill:#2D2626;}
	.st302{fill:#191311;}
	.st303{fill:#221C16;}
	.st304{fill:#191615;}
	.st305{fill:#D1C8C0;}
	.st306{fill:#B38B7D;}
	.st307{fill:#805E53;}
	.st308{fill:#585B64;}
	.st309{fill:#5C6068;}
	.st310{fill:#989CA7;}
	.st311{fill:#57413B;}
	.st312{fill:#1E1F25;}
	.st313{fill:#141414;}
	.st314{fill:#09080B;}
</style>
<g>
	<polygon class="st0" points="73.89,160.59 73.89,160.65 73.94,160.59 	"/>
	<polygon class="st1" points="73.89,160.65 74.04,160.59 73.94,160.59 	"/>
	<polygon class="st2" points="46.71,143.22 37.89,137.61 37.89,147.69 46.53,143.37 	"/>
	<polygon class="st3" points="53.73,147.69 46.71,143.22 46.53,143.37 37.89,147.69 49.41,147.69 	"/>
	<polygon class="st4" points="37.89,147.69 37.89,156.33 42.21,152.01 	"/>
	<polygon class="st5" points="49.41,147.69 37.89,147.69 42.21,152.01 	"/>
	<polygon class="st6" points="37.89,126.09 20.61,137.61 37.89,137.61 	"/>
	<polygon class="st7" points="53.73,153.45 53.73,147.69 49.41,147.69 	"/>
	<polygon class="st8" points="20.61,137.61 29.25,144.81 37.89,137.61 	"/>
	<polygon class="st9" points="50.85,126.09 37.89,126.09 37.89,137.61 	"/>
	<polygon class="st10" points="29.25,144.81 37.89,147.69 37.89,137.61 	"/>
	<polygon class="st11" points="37.89,156.33 43.65,156.33 42.21,152.01 	"/>
	<polygon class="st12" points="59.49,154.89 59.49,153.45 53.73,153.45 	"/>
	<polygon class="st12" points="58.05,157.77 59.49,154.89 53.73,153.45 	"/>
	<polygon class="st13" points="42.21,152.01 43.65,156.33 49.41,147.69 	"/>
	<polygon class="st14" points="53.73,158.85 58.05,157.77 53.73,153.45 	"/>
	<polygon class="st15" points="59.49,153.45 59.49,147.69 53.73,153.45 	"/>
	<polygon class="st16" points="49.41,156.33 53.34,158.95 53.73,158.85 53.73,153.45 	"/>
	<polygon class="st17" points="43.65,156.33 49.41,156.33 49.41,147.69 	"/>
	<polygon class="st7" points="49.41,147.69 49.41,156.33 53.73,153.45 	"/>
	<polygon class="st18" points="22.05,77.13 19.17,78.57 22.05,78.57 	"/>
	<polygon class="st19" points="20.61,95.85 47.97,92.97 30.69,87.21 	"/>
	<polygon class="st20" points="30.69,87.21 47.97,92.97 42.21,87.21 	"/>
	<polygon class="st21" points="22.05,87.21 22.05,88.65 20.61,95.85 30.69,87.21 	"/>
	<polygon class="st21" points="52.29,87.21 53.21,85.84 42.21,87.21 47.97,92.97 49.41,91.53 	"/>
	<polygon class="st22" points="22.05,87.21 30.69,78.57 22.05,77.13 22.05,78.57 	"/>
	<polygon class="st18" points="22.05,87.21 22.05,78.57 19.17,78.57 22.05,88.65 	"/>
	<polygon class="st18" points="19.17,78.57 19.17,95.85 20.61,95.85 22.05,88.65 	"/>
	<polygon class="st23" points="53.73,128.97 53.73,127.53 53.73,120.33 46.53,120.33 	"/>
	<polygon class="st24" points="45.87,118.89 46.05,119.29 46.53,118.89 	"/>
	<polygon class="st25" points="49.41,111.69 49.74,111.58 49.25,111.21 	"/>
	<polygon class="st26" points="37.89,137.61 53.73,128.97 46.53,120.33 46.05,119.29 37.89,126.09 50.85,126.09 	"/>
	<polygon class="st24" points="53.73,114.57 43.87,114.57 45.87,118.89 46.53,118.89 46.05,119.29 46.53,120.33 	"/>
	<polygon class="st27" points="53.73,120.33 53.73,114.57 46.53,120.33 	"/>
	<polygon class="st28" points="50.85,101.61 56.61,101.61 49.41,95.85 49.41,101.61 	"/>
	<polygon class="st25" points="49.74,111.58 49.41,111.69 49.25,111.21 47.97,110.25 40.77,104.49 37.89,101.61 43.87,114.57 
		53.73,114.57 	"/>
	<polygon class="st29" points="66.69,49.77 75.33,42.57 66.69,42.57 	"/>
	<polygon class="st30" points="75.33,42.57 75.33,33.93 66.69,42.57 	"/>
	<polygon class="st31" points="66.69,33.93 60.93,33.93 66.69,42.57 	"/>
	<polygon class="st32" points="66.69,71.37 81.09,71.37 66.69,64.17 	"/>
	<polygon class="st33" points="75.33,33.93 66.69,33.93 66.69,42.57 	"/>
	<polygon class="st34" points="33.57,71.37 22.05,77.13 30.69,78.57 	"/>
	<polygon class="st35" points="66.69,64.17 79.65,56.97 66.69,55.53 	"/>
	<polygon class="st36" points="81.09,71.37 79.65,56.97 66.69,64.17 	"/>
	<polygon class="st37" points="48.77,49.13 49.41,48.33 42.21,41.13 33.57,51.21 43.65,49.77 	"/>
	<polygon class="st38" points="66.69,55.53 79.65,56.97 72.45,51.21 	"/>
	<polygon class="st39" points="66.69,50.49 72.45,51.21 75.33,42.57 66.69,49.77 	"/>
	<polygon class="st40" points="20.61,41.13 33.57,51.21 33.57,41.13 	"/>
	<polygon class="st41" points="59.49,147.69 53.73,137.61 53.73,147.69 	"/>
	<polygon class="st42" points="32.93,40.33 32.85,40.41 32.93,40.33 27.81,33.93 20.61,41.13 33.57,41.13 	"/>
	<polygon class="st43" points="33.57,41.13 33.57,51.21 42.21,41.13 	"/>
	<polygon class="st44" points="49.41,48.33 49.41,33.93 42.21,41.13 	"/>
	<polygon class="st45" points="60.93,33.93 49.41,33.93 49.41,48.33 	"/>
	<polygon class="st46" points="33.57,39.69 33.57,41.13 42.21,41.13 39.33,33.93 	"/>
	<polygon class="st47" points="39.33,33.93 33.57,26.73 33.57,39.69 	"/>
	<polygon class="st48" points="60.93,121.77 60.93,113.13 53.73,114.57 	"/>
	<polygon class="st49" points="53.73,128.97 60.93,128.97 53.73,127.53 	"/>
	<polygon class="st49" points="60.93,128.97 60.93,121.77 53.73,127.53 	"/>
	<polygon class="st50" points="60.93,101.61 59.49,101.61 56.61,100.17 53.73,95.85 52.29,95.85 49.41,95.85 56.61,101.61 
		65.25,104.49 69.57,105.93 63.81,100.17 	"/>
	<polygon class="st51" points="73.89,74.25 81.09,71.37 66.69,71.37 	"/>
	<polygon class="st52" points="53.73,147.69 53.73,137.61 46.71,143.22 	"/>
	<polygon class="st53" points="46.71,143.22 53.73,137.61 37.89,137.61 	"/>
	<polygon class="st54" points="53.73,137.61 60.93,128.97 53.73,128.97 	"/>
	<polygon class="st26" points="37.89,137.61 38.61,137.61 53.01,137.61 53.73,137.61 53.73,128.97 	"/>
	<polygon class="st55" points="69.57,105.93 71.01,100.17 63.81,100.17 	"/>
	<polygon class="st56" points="65.25,98.73 63.81,100.17 71.01,100.17 68.13,97.29 	"/>
	<polygon class="st57" points="78.21,81.45 78.21,78.57 73.89,80.01 	"/>
	<polygon class="st58" points="72.45,77.13 73.89,80.01 78.21,78.57 73.89,77.13 	"/>
	<polygon class="st59" points="79.65,75.69 81.09,71.37 73.89,74.25 	"/>
	<polygon class="st60" points="72.45,85.77 71.01,85.77 71.01,92.97 76.77,85.77 73.89,85.77 	"/>
	<polygon class="st60" points="65.25,92.97 71.01,92.97 71.01,85.77 	"/>
	<polygon class="st61" points="68.13,97.29 71.01,92.97 65.25,92.97 	"/>
	<polygon class="st62" points="79.65,56.97 75.33,42.57 72.45,51.21 	"/>
	<polygon class="st63" points="17.73,134.73 11.97,139.05 11.97,141.93 17.73,134.73 	"/>
	<polygon class="st64" points="17.73,134.73 17.73,134.73 11.97,141.93 17.73,141.93 	"/>
	<polygon class="st65" points="11.97,141.93 7.65,152.01 17.73,141.93 	"/>
	<polygon class="st66" points="65.41,77.07 62.37,75.58 62.37,78.57 	"/>
	<polygon class="st67" points="63.81,147.69 63.81,140.49 59.49,147.69 	"/>
	<polygon class="st68" points="49.41,26.73 42.21,26.73 49.41,33.93 	"/>
	<polygon class="st69" points="63.81,140.49 53.73,137.61 59.49,147.69 	"/>
	<polygon class="st70" points="69.57,77.13 65.25,77.13 66.69,80.01 	"/>
	<polygon class="st71" points="37.89,72.81 36.45,72.81 33.57,75.69 42.21,72.81 	"/>
	<polygon class="st72" points="22.05,87.21 30.69,87.21 30.69,78.57 	"/>
	<polygon class="st70" points="66.69,80.01 65.25,77.13 63.81,82.89 	"/>
	<polygon class="st73" points="23.49,141.93 27.81,149.13 28.07,148.34 	"/>
	<polygon class="st74" points="28.07,148.34 28.56,149.02 37.89,147.69 29.25,144.81 	"/>
	<polygon class="st75" points="17.73,134.73 17.73,141.93 23.49,141.93 19.17,136.17 	"/>
	<polygon class="st76" points="7.65,152.01 17.33,145.85 17.01,145.53 17.33,145.85 23.49,141.93 17.73,141.93 	"/>
	<polygon class="st77" points="27.81,149.13 28.56,149.02 28.07,148.34 	"/>
	<polygon class="st78" points="82.53,51.21 75.33,42.57 79.65,56.97 	"/>
	<polygon class="st79" points="85.8,154.56 93.89,147.82 93.59,147.69 73.89,147.69 	"/>
	<polygon class="st80" points="82.53,143.37 73.89,147.69 93.59,147.69 86.85,144.81 73.89,139.05 73.89,147.69 	"/>
	<polygon class="st81" points="73.87,160.57 73.89,147.69 60.93,157.77 	"/>
	<polygon class="st82" points="27.09,156.33 33.57,156.33 30.69,152.01 	"/>
	<polygon class="st83" points="20.61,46.89 33.57,51.21 20.61,41.13 	"/>
	<polygon class="st84" points="11.97,123.21 11.97,127.53 11.97,128.97 20.61,126.09 	"/>
	<polygon class="st85" points="10.53,69.93 11.43,71.37 11.68,71.37 	"/>
	<polygon class="st86" points="9.09,41.13 20.61,46.89 20.61,41.13 	"/>
	<polygon class="st87" points="69.57,74.25 66.69,71.37 65.25,77.13 	"/>
	<polygon class="st88" points="66.69,64.17 66.69,55.53 55.17,55.53 	"/>
	<polygon class="st89" points="60.93,49.77 55.17,48.33 49.93,48.98 55.17,55.53 65.54,50.35 	"/>
	<polygon class="st90" points="66.69,55.53 72.45,51.21 66.69,50.49 66.69,51.21 	"/>
	<polygon class="st91" points="55.17,64.17 66.69,64.17 55.17,55.53 	"/>
	<polygon class="st92" points="66.69,71.37 66.69,64.17 55.17,64.17 	"/>
	<polygon class="st93" points="62.37,75.69 66.69,71.37 56.61,74.25 	"/>
	<polygon class="st94" points="55.17,55.53 66.69,55.53 66.69,51.21 66.69,50.49 65.54,50.35 	"/>
	<polygon class="st95" points="56.61,74.25 66.69,71.37 55.17,71.37 	"/>
	<polygon class="st96" points="47.97,75.69 50.85,77.13 52.29,78.57 56.61,78.57 50.85,75.69 	"/>
	<polygon class="st97" points="55.17,71.37 66.69,71.37 55.17,64.17 	"/>
	<path class="st98" d="M46.53,69.93c0.77,0,1.95,0,2.88,0c0.81,0,1.44,0,1.44,0l4.32,1.44l-11.52-7.2l-5.76,5.76h4.32
		C42.21,69.93,45.09,69.93,46.53,69.93z"/>
	<polygon class="st99" points="55.17,64.17 43.65,64.17 55.17,71.37 	"/>
	<polygon class="st71" points="36.45,72.81 33.57,71.37 33.57,75.69 	"/>
	<polygon class="st100" points="66.69,50.49 66.69,49.77 65.54,50.35 	"/>
	<polygon class="st94" points="55.17,55.53 43.65,55.53 55.17,64.17 	"/>
	<polygon class="st101" points="55.17,48.33 60.93,49.77 65.54,50.35 66.69,49.77 66.69,42.57 49.41,48.33 49.93,48.98 	"/>
	<polygon class="st102" points="49.93,48.98 48.77,49.13 43.65,55.53 55.17,55.53 	"/>
	<polygon class="st103" points="49.41,48.33 48.77,49.13 49.93,48.98 	"/>
	<polygon class="st104" points="49.41,72.81 47.97,72.81 42.21,72.81 46.53,75.69 	"/>
	<polygon class="st93" points="52.29,78.57 53.73,80.01 58.05,78.57 62.37,75.69 56.61,74.25 56.61,78.57 	"/>
	<polygon class="st96" points="56.61,78.57 56.61,74.25 53.73,74.25 	"/>
	<polygon class="st105" points="33.54,75.69 30.6,78.57 35.01,77.13 	"/>
	<polygon class="st106" points="37.89,75.69 40.77,75.69 42.21,75.69 43.65,75.69 45.09,75.69 46.53,75.69 42.21,72.81 33.57,75.69 
		36.45,75.69 	"/>
	<polygon class="st107" points="52.29,81.45 53.57,85.29 53.73,85.05 53.73,80.01 	"/>
	<polygon class="st96" points="56.61,78.57 53.73,74.25 50.85,75.69 	"/>
	<polygon class="st108" points="53.73,74.25 50.85,72.81 49.41,72.81 50.85,75.69 	"/>
	<polygon class="st109" points="49.41,81.45 47.97,81.45 46.53,81.45 43.65,81.45 40.77,81.45 37.89,80.01 42.21,87.21 52.29,81.45 
			"/>
	<polygon class="st110" points="63.81,82.89 65.25,77.13 62.37,78.57 63.81,85.77 65.25,92.97 71.01,85.77 66.69,84.33 	"/>
	<polygon class="st111" points="69.49,80.01 70.96,80.01 72.42,80.01 73.89,80.01 72.42,76.94 66.56,80.01 	"/>
	<polygon class="st22" points="36.45,78.57 35.01,77.13 30.69,87.21 37.89,80.01 	"/>
	<polygon class="st19" points="30.69,87.21 42.21,87.21 37.89,80.01 	"/>
	<polygon class="st112" points="52.29,81.45 42.21,87.21 53.21,85.84 53.57,85.29 	"/>
	<polygon class="st107" points="53.73,85.05 55.17,82.89 58.05,78.57 53.73,80.01 	"/>
	<polygon class="st113" points="92.61,49.77 92.61,44.01 75.33,42.57 	"/>
	<polygon class="st44" points="82.53,51.21 92.61,49.77 75.33,42.57 	"/>
	<polygon class="st114" points="92.61,44.01 92.61,39.69 75.33,42.57 	"/>
	<polygon class="st115" points="88.29,55.53 92.61,49.77 82.53,51.21 	"/>
	<polygon class="st116" points="79.65,56.97 88.29,55.53 82.53,51.21 	"/>
	<polygon class="st117" points="81.09,71.37 88.29,55.53 79.65,56.97 	"/>
	<polygon class="st118" points="66.69,33.93 66.69,16.65 66.69,16.65 62.37,16.65 49.41,16.65 60.93,33.93 	"/>
	<polygon class="st119" points="75.33,33.93 71.01,25.29 71.01,25.29 71.01,25.29 66.69,16.65 66.69,33.93 	"/>
	<polygon class="st120" points="49.41,33.93 60.93,33.93 49.41,16.65 49.41,26.73 	"/>
	<polygon class="st121" points="89.73,29.61 83.97,25.29 79.65,23.85 75.33,33.93 	"/>
	<polygon class="st122" points="75.33,42.57 89.73,29.61 75.33,33.93 	"/>
	<polygon class="st123" points="49.41,26.73 49.41,16.65 42.21,26.73 	"/>
	<polygon class="st124" points="67.41,107.73 68.13,107.37 67.41,107.73 64.17,110.43 72.45,114.57 69.57,105.93 	"/>
	<polygon class="st125" points="65.25,128.97 65.25,124.65 60.93,128.97 	"/>
	<polygon class="st126" points="60.93,121.77 68.13,120.33 60.93,113.13 	"/>
	<polygon class="st127" points="63.96,110.6 68.13,120.33 72.45,114.57 64.17,110.43 	"/>
	<polygon class="st128" points="60.93,113.13 68.13,120.33 63.96,110.6 	"/>
	<polygon class="st125" points="65.25,124.65 68.13,120.33 60.93,121.77 	"/>
	<polygon class="st129" points="73.89,139.05 68.13,133.29 66.55,130.91 63.81,140.49 	"/>
	<polygon class="st130" points="63.81,140.49 66.55,130.91 66.34,130.6 53.73,137.61 	"/>
	<polygon class="st131" points="66.34,130.6 65.25,128.97 53.73,137.61 	"/>
	<polygon class="st132" points="53.73,137.61 65.25,128.97 60.93,128.97 	"/>
	<polygon class="st133" points="75.33,105.93 69.57,105.93 72.45,114.57 75.33,107.37 78.21,100.17 79.65,95.85 69.57,105.93 	"/>
	<polygon class="st134" points="79.65,81.45 78.21,81.45 78.21,84.33 79.41,84.33 79.65,82.89 81.09,78.57 78.21,81.45 	"/>
	<polygon class="st135" points="76.77,85.77 78.21,91.53 79.41,84.33 78.21,84.33 	"/>
	<polygon class="st136" points="81.09,78.57 83.97,71.37 81.09,71.37 	"/>
	<polygon class="st137" points="78.21,81.45 81.09,78.57 78.21,78.57 	"/>
	<polygon class="st138" points="63.81,147.69 68.51,143.66 68.13,143.37 68.51,143.66 73.89,139.05 63.81,140.49 	"/>
	<polygon class="st139" points="69.57,105.93 79.65,95.85 71.01,100.17 	"/>
	<polygon class="st135" points="71.01,92.97 78.21,91.53 76.77,85.77 	"/>
	<polygon class="st135" points="79.65,95.85 78.21,91.53 71.01,92.97 	"/>
	<polygon class="st140" points="71.01,100.17 79.65,95.85 71.01,92.97 	"/>
	<polygon class="st141" points="11.97,127.53 7.65,127.53 11.97,128.97 	"/>
	<polygon class="st142" points="11.97,128.97 7.65,127.53 7.65,134.73 	"/>
	<polygon class="st143" points="-0.53,134.54 -0.75,134.77 -0.75,141.91 7.65,134.73 	"/>
	<polygon class="st141" points="11.97,123.21 7.65,127.53 11.97,127.53 	"/>
	<polygon class="st144" points="7.65,127.53 3.52,130.28 -0.53,134.54 7.65,134.73 	"/>
	<polygon class="st141" points="7.65,123.21 7.65,127.53 11.97,123.21 	"/>
	<polygon class="st145" points="13.41,118.89 11.97,118.89 11.97,123.21 	"/>
	<polygon class="st146" points="23.49,118.89 13.41,118.89 20.61,126.09 	"/>
	<polygon class="st145" points="11.97,118.89 7.65,123.21 11.97,123.21 	"/>
	<polygon class="st147" points="20.61,126.09 13.41,118.89 11.97,123.21 	"/>
	<polygon class="st148" points="53.73,159.21 53.77,160.57 49.41,159.21 43.62,160.57 40.77,159.21 23.49,160.65 53.9,160.59 
		58.05,159.21 	"/>
	<polygon class="st149" points="73.87,160.57 60.93,157.77 60.91,160.57 60.93,157.77 58,160.57 58.05,159.21 53.9,160.59 
		66.37,160.57 73.89,160.59 73.89,147.69 	"/>
	<polygon class="st1" points="85.41,154.89 85.8,154.56 73.89,147.69 73.89,160.59 73.94,160.59 81.09,152.01 73.94,160.59 
		74.04,160.59 81.09,157.77 	"/>
	<polygon class="st150" points="26.37,156.33 27.09,156.33 30.69,152.01 23.49,152.01 23.49,160.65 27.09,156.33 	"/>
	<polygon class="st151" points="27.09,156.33 23.49,160.65 33.57,156.33 	"/>
	<polygon class="st152" points="36.45,157.77 33.57,156.33 23.49,160.65 40.77,159.21 	"/>
	<polygon class="st153" points="7.65,91.53 13.41,97.29 17.73,91.53 	"/>
	<polygon class="st154" points="33.57,51.21 9.09,52.65 32.13,55.53 	"/>
	<polygon class="st155" points="10.53,69.93 11.68,71.37 11.97,71.37 11.89,71.64 16.29,77.13 23.49,68.49 9.09,69.93 6.21,71.37 
		11.43,71.37 	"/>
	<polygon class="st85" points="9.09,59.85 9.09,68.49 9.09,69.93 23.49,68.49 	"/>
	<polygon class="st156" points="37.89,16.65 36.45,16.65 27.81,16.65 33.57,26.73 	"/>
	<polygon class="st157" points="11.97,87.21 6.21,81.45 4.77,75.69 6.21,82.89 7.65,91.53 11.97,87.21 	"/>
	<polygon class="st158" points="23.49,99.07 13.41,97.29 23.49,111.69 	"/>
	<polygon class="st159" points="23.49,98.73 17.73,95.85 13.41,97.29 23.49,99.07 	"/>
	<polygon class="st160" points="11.43,71.37 6.21,71.37 4.77,75.69 11.58,71.61 	"/>
	<polygon class="st161" points="17.73,91.53 13.41,97.29 17.73,95.85 	"/>
	<polygon class="st162" points="23.49,111.69 13.41,97.29 13.41,118.89 23.49,111.77 	"/>
	<polygon class="st163" points="11.71,71.82 11.58,71.61 4.77,75.69 6.21,81.45 	"/>
	<polygon class="st164" points="49.41,16.65 47.97,16.65 37.89,16.65 42.21,26.73 	"/>
	<polygon class="st165" points="23.49,111.77 13.41,118.89 23.49,118.89 	"/>
	<polygon class="st166" points="11.97,87.21 7.65,91.53 17.73,91.53 	"/>
	<polygon class="st167" points="11.97,87.21 17.73,91.53 17.73,81.45 	"/>
	<polygon class="st168" points="23.61,111.69 23.49,111.77 23.49,118.89 42.21,111.69 	"/>
	<polygon class="st77" points="27.81,149.13 30.69,152.01 28.56,149.02 	"/>
	<polygon class="st169" points="28.56,149.02 30.69,152.01 33.57,156.33 37.89,147.69 	"/>
	<polygon class="st170" points="37.89,147.69 33.57,156.33 37.89,156.33 	"/>
	<polygon class="st73" points="17.73,134.73 17.73,134.73 17.73,134.73 19.17,136.17 23.49,141.93 28.07,148.34 29.25,144.81 
		20.61,137.61 20.61,126.09 11.97,128.97 14.85,131.85 	"/>
	<polygon class="st171" points="37.89,156.33 40.77,159.21 43.65,156.33 	"/>
	<polygon class="st172" points="53.73,158.85 53.73,159.21 58.05,159.21 58.05,157.77 	"/>
	<polygon class="st173" points="40.77,159.21 46.53,159.21 49.41,159.21 43.65,156.33 	"/>
	<polygon class="st174" points="58.05,159.21 58,160.57 60.93,157.77 58.05,157.77 	"/>
	<polygon class="st175" points="53.34,158.95 53.73,159.21 53.73,158.85 	"/>
	<polygon class="st176" points="43.65,156.33 49.41,159.21 49.41,156.33 	"/>
	<polygon class="st175" points="52.29,159.21 49.41,159.21 53.77,160.57 53.73,159.21 53.34,158.95 	"/>
	<polygon class="st175" points="53.34,158.95 49.41,156.33 49.41,159.21 52.29,159.21 	"/>
	<polygon class="st63" points="17.73,134.73 17.73,134.73 7.65,134.73 11.97,139.05 	"/>
	<polygon class="st177" points="43.87,114.57 43.65,114.57 43.87,114.57 37.89,101.61 23.61,111.69 42.21,111.69 23.49,118.89 
		45.87,118.89 	"/>
	<polygon class="st178" points="11.97,139.05 7.65,141.93 11.97,141.93 	"/>
	<polygon class="st179" points="11.97,141.93 7.65,141.93 7.65,152.01 	"/>
	<polygon class="st77" points="23.49,141.93 23.49,152.01 30.69,152.01 27.81,149.13 	"/>
	<polygon class="st180" points="23.49,111.69 23.49,111.77 23.61,111.69 	"/>
	<polygon class="st181" points="46.05,119.29 45.87,118.89 23.49,118.89 37.89,126.09 	"/>
	<polygon class="st178" points="7.65,134.73 7.65,141.93 11.97,139.05 	"/>
	<polygon class="st182" points="7.65,152.01 23.49,152.01 17.33,145.85 	"/>
	<polygon class="st183" points="14.85,131.85 11.97,128.97 7.65,134.73 17.73,134.73 	"/>
	<polygon class="st184" points="7.63,152.01 13.41,156.33 23.49,152.01 7.65,152.01 	"/>
	<polygon class="st185" points="17.33,145.85 23.49,152.01 23.49,141.93 	"/>
	<polygon class="st148" points="40.77,159.21 43.62,160.57 49.41,159.21 46.53,159.21 	"/>
	<polygon class="st186" points="23.49,68.49 16.29,77.13 19.17,78.57 	"/>
	<polygon class="st187" points="17.73,81.45 11.8,71.96 9.09,81.45 	"/>
	<polygon class="st188" points="33.57,51.21 32.13,55.53 43.65,55.53 	"/>
	<polygon class="st189" points="22.05,77.13 23.49,68.49 19.17,78.57 	"/>
	<polygon class="st190" points="35.01,61.29 30.69,64.17 23.49,68.49 43.65,64.17 	"/>
	<polygon class="st92" points="43.65,55.53 35.01,61.29 43.65,64.17 	"/>
	<polygon class="st191" points="32.13,55.53 35.01,61.29 43.65,55.53 	"/>
	<polygon class="st192" points="33.57,71.37 23.49,68.49 22.05,77.13 	"/>
	<polygon class="st193" points="43.65,64.17 23.49,68.49 37.89,69.93 	"/>
	<polygon class="st194" points="37.89,69.93 23.49,68.49 33.57,71.37 	"/>
	<polygon class="st195" points="11.8,71.96 11.71,71.82 6.21,81.45 9.09,81.45 	"/>
	<polygon class="st196" points="9.09,81.45 6.21,81.45 11.97,87.21 11.97,87.21 17.73,81.45 	"/>
	<polygon class="st197" points="63.81,147.69 73.89,147.69 68.51,143.66 	"/>
	<polygon class="st198" points="60.93,157.77 73.89,147.69 60.93,154.17 	"/>
	<polygon class="st199" points="59.49,147.69 59.49,153.45 59.49,154.89 60.93,154.17 60.93,153.45 60.93,154.17 73.89,147.69 
		63.81,147.69 	"/>
	<polygon class="st200" points="36.45,94.41 23.49,98.73 23.49,99.07 37.89,101.61 	"/>
	<polygon class="st201" points="37.89,126.09 20.61,126.09 20.61,137.61 	"/>
	<polygon class="st202" points="19.17,78.57 16.29,77.13 11.89,71.64 11.8,71.96 17.73,81.45 17.73,91.53 17.73,95.85 19.17,95.85 	
		"/>
	<polygon class="st203" points="37.89,101.61 47.97,92.97 20.61,95.85 19.17,95.85 17.73,95.85 23.49,98.73 36.45,94.41 	"/>
	<polygon class="st204" points="48.77,49.13 43.65,49.77 33.57,51.21 43.65,55.53 	"/>
	<polygon class="st205" points="23.49,118.89 20.61,126.09 37.89,126.09 	"/>
	<polygon class="st206" points="37.89,101.61 23.49,99.07 23.49,111.69 23.61,111.69 	"/>
	<polygon class="st207" points="73.89,147.69 73.89,139.05 68.51,143.66 	"/>
	<polygon class="st208" points="53.73,74.25 53.73,71.37 49.41,72.81 50.85,72.81 	"/>
	<polygon class="st209" points="56.61,74.25 55.17,71.37 53.73,74.25 	"/>
	<polygon class="st210" points="49.41,72.81 49.41,69.93 45.09,71.37 42.21,72.81 47.97,72.81 	"/>
	<path class="st211" d="M49.41,69.93c-0.93,0-2.11,0-2.88,0c-1.44,0-4.32,0-4.32,0l2.88,1.44L49.41,69.93z"/>
	<path class="st212" d="M53.73,71.37v2.88l1.44-2.88l-4.32-1.44c0,0-0.63,0-1.44,0v2.88L53.73,71.37z"/>
	<polygon class="st213" points="42.21,69.93 42.21,72.81 45.09,71.37 	"/>
	<polygon class="st214" points="78.21,78.57 81.19,78.57 79.7,75.51 	"/>
	<polygon class="st215" points="76.77,75.69 72.45,74.25 72.45,77.13 	"/>
	<polygon class="st216" points="69.57,77.13 72.45,74.25 69.57,74.25 	"/>
	<polygon class="st217" points="72.45,77.13 73.89,77.13 78.21,78.57 76.77,75.69 	"/>
	<polygon class="st218" points="71.01,77.13 72.45,77.13 72.45,74.25 69.57,77.13 	"/>
	<polygon class="st219" points="72.45,74.25 76.77,75.69 78.21,78.57 79.65,75.69 73.89,74.25 	"/>
	<polygon class="st220" points="69.57,74.25 65.25,77.13 69.57,77.13 	"/>
	<polygon class="st221" points="46.53,81.45 47.97,81.45 49.41,81.45 49.41,78.57 	"/>
	<polygon class="st222" points="49.41,78.57 49.41,81.45 52.29,78.57 	"/>
	<polygon class="st223" points="46.53,78.57 46.53,81.45 49.41,78.57 	"/>
	<polygon class="st224" points="52.29,78.57 52.29,81.45 53.73,80.01 	"/>
	<polygon class="st225" points="46.53,78.57 49.41,78.57 52.29,78.57 46.53,77.13 	"/>
	<polygon class="st226" points="49.41,81.45 52.29,81.45 52.29,78.57 	"/>
	<polygon class="st227" points="47.97,75.69 46.53,75.69 45.09,75.69 46.53,77.13 	"/>
	<polygon class="st228" points="43.65,76.41 43.65,75.69 42.21,75.69 42.21,77.13 	"/>
	<polygon class="st229" points="47.97,75.69 46.53,77.13 52.29,78.57 50.85,77.13 	"/>
	<polygon class="st230" points="42.21,75.69 40.77,75.69 42.21,77.13 	"/>
	<polygon class="st231" points="43.65,80.01 40.77,81.45 43.65,81.45 46.53,81.45 46.53,78.57 	"/>
	<polygon class="st232" points="40.77,77.13 40.77,75.69 37.89,77.13 	"/>
	<polygon class="st233" points="40.77,75.69 37.89,75.69 36.45,75.69 37.89,77.13 	"/>
	<polygon class="st234" points="35.01,77.13 36.45,78.57 37.89,80.01 37.89,77.13 	"/>
	<polygon class="st235" points="36.45,75.69 33.57,75.69 35.01,77.13 	"/>
	<polygon class="st236" points="75.33,84.33 78.21,84.33 78.21,81.45 76.77,82.89 	"/>
	<polygon class="st237" points="71.01,85.77 72.45,85.77 72.45,84.33 	"/>
	<polygon class="st57" points="72.45,80.01 73.89,81.45 78.21,81.45 73.89,80.01 	"/>
	<polygon class="st134" points="76.77,82.89 78.21,81.45 73.89,81.45 	"/>
	<polygon class="st238" points="66.69,81.45 66.69,84.33 68.13,82.89 68.13,81.45 	"/>
	<polygon class="st239" points="72.45,85.77 75.33,84.33 72.45,84.33 	"/>
	<polygon class="st70" points="66.69,84.33 66.69,81.45 66.69,80.01 63.81,82.89 	"/>
	<polygon class="st240" points="76.77,82.89 73.89,81.45 73.89,82.89 	"/>
	<polygon class="st241" points="68.13,81.45 69.57,80.01 66.69,80.01 66.69,81.45 	"/>
	<polygon class="st242" points="72.45,84.33 75.33,84.33 73.89,82.89 	"/>
	<polygon class="st243" points="75.33,84.33 76.77,82.89 73.89,82.89 	"/>
	<polygon class="st237" points="71.01,84.33 69.57,84.33 68.13,82.89 66.69,84.33 71.01,85.77 72.45,84.33 	"/>
	<polygon class="st244" points="76.77,85.77 78.21,84.33 75.33,84.33 	"/>
	<polygon class="st245" points="72.45,85.77 73.89,85.77 76.77,85.77 75.33,84.33 	"/>
	<polygon class="st246" points="62.37,97.29 68.13,97.29 65.25,92.97 62.37,97.29 	"/>
	<polygon class="st247" points="58.05,97.29 59.49,101.61 62.37,97.29 	"/>
	<polygon class="st248" points="62.37,97.29 65.25,92.97 58.05,97.29 	"/>
	<polygon class="st249" points="55.17,92.97 47.97,92.97 49.41,95.85 	"/>
	<polygon class="st250" points="59.49,85.77 62.37,78.57 58.05,78.57 	"/>
	<polygon class="st251" points="62.37,97.29 59.49,101.61 60.93,101.61 60.93,100.17 63.81,100.17 62.37,97.29 	"/>
	<polygon class="st252" points="63.81,85.77 62.37,78.57 59.49,85.77 	"/>
	<polygon class="st253" points="63.81,100.17 65.25,98.73 68.13,97.29 62.37,97.29 	"/>
	<polygon class="st254" points="49.41,95.85 52.29,95.85 53.73,95.85 55.17,92.97 	"/>
	<polygon class="st255" points="53.73,85.77 53.21,85.84 52.29,87.21 49.41,91.53 47.97,92.97 55.17,92.97 	"/>
	<polygon class="st256" points="53.73,95.85 56.61,100.17 58.05,97.29 	"/>
	<polygon class="st257" points="60.93,101.61 63.81,100.17 60.93,100.17 	"/>
	<polygon class="st66" points="62.37,78.57 62.37,75.69 58.05,78.57 	"/>
	<polygon class="st258" points="53.73,95.85 65.25,92.97 55.17,92.97 	"/>
	<polygon class="st259" points="56.61,100.17 59.49,101.61 58.05,97.29 	"/>
	<polygon class="st260" points="58.05,97.29 65.25,92.97 53.73,95.85 	"/>
	<polygon class="st261" points="53.21,85.84 53.73,85.77 53.57,85.29 	"/>
	<polygon class="st262" points="55.17,92.97 65.25,92.97 63.81,85.77 	"/>
	<polygon class="st263" points="59.49,85.77 53.73,85.77 55.17,92.97 63.81,85.77 	"/>
	<polygon class="st264" points="53.57,85.29 53.73,85.77 53.73,85.05 	"/>
	<polygon class="st264" points="58.05,78.57 55.17,82.89 53.73,85.05 53.73,85.77 59.49,85.77 	"/>
	<polygon class="st265" points="49.74,111.58 53.73,114.57 53.73,110.25 	"/>
	<polygon class="st266" points="50.85,101.61 53.73,105.93 59.49,104.49 55.17,103.05 	"/>
	<polygon class="st267" points="62.37,107.37 63.81,107.37 66.69,107.37 63.81,104.49 58.05,107.37 	"/>
	<polygon class="st268" points="55.17,103.05 59.49,104.49 56.61,101.61 50.85,101.61 	"/>
	<polygon class="st269" points="53.73,110.25 53.73,114.57 58.05,110.25 56.61,110.25 	"/>
	<polygon class="st270" points="63.81,104.49 59.49,104.49 58.05,107.37 	"/>
	<polygon class="st271" points="53.73,106.29 58.05,107.37 59.49,104.49 53.73,105.93 	"/>
	<polygon class="st272" points="45.09,107.37 47.97,107.37 43.65,104.49 	"/>
	<polygon class="st273" points="53.73,110.25 56.61,110.25 58.05,110.25 62.37,110.25 59.49,108.81 	"/>
	<polygon class="st274" points="58.05,107.37 59.49,108.81 63.81,107.37 62.37,107.37 	"/>
	<polygon class="st274" points="47.97,107.37 53.73,110.25 53.73,106.29 53.01,106.11 	"/>
	<polygon class="st275" points="53.73,106.29 53.73,105.93 53.01,106.11 	"/>
	<polygon class="st276" points="58.05,107.37 53.73,106.29 53.73,110.25 	"/>
	<polygon class="st277" points="47.97,107.37 49.25,111.21 49.74,111.58 53.73,110.25 	"/>
	<polygon class="st274" points="52.29,105.93 46.53,104.49 43.65,103.05 47.97,107.37 53.01,106.11 	"/>
	<polygon class="st278" points="47.97,107.37 43.65,103.05 39.33,101.61 43.65,104.49 	"/>
	<polygon class="st275" points="52.29,105.93 53.01,106.11 53.73,105.93 50.85,101.61 46.53,104.49 	"/>
	<polygon class="st279" points="39.33,101.61 40.77,104.49 43.65,104.49 	"/>
	<polygon class="st280" points="46.53,104.49 50.85,101.61 49.41,101.61 40.77,101.61 39.33,101.61 43.65,103.05 	"/>
	<polygon class="st281" points="45.09,107.37 43.65,104.49 40.77,104.49 47.97,110.25 49.25,111.21 47.97,107.37 	"/>
	<polygon class="st282" points="63.96,110.6 64.17,110.43 63.81,110.25 	"/>
	<polygon class="st283" points="39.33,101.61 37.89,101.61 40.77,104.49 	"/>
	<polygon class="st282" points="60.93,113.13 63.96,110.6 63.81,110.25 64.17,110.43 67.41,107.73 62.37,110.25 	"/>
	<polygon class="st284" points="53.73,114.57 60.93,113.13 58.05,110.25 	"/>
	<polygon class="st285" points="58.05,110.25 60.93,113.13 62.37,110.25 	"/>
	<polygon class="st286" points="56.61,101.61 59.49,104.49 63.81,104.49 66.69,107.37 63.81,107.37 62.37,110.25 67.41,107.73 
		69.57,105.93 65.25,104.49 	"/>
	<polygon class="st287" points="20.61,46.89 9.09,52.65 33.57,51.21 	"/>
	<polygon class="st288" points="27.81,33.93 33.57,26.73 27.81,16.65 27.81,25.29 	"/>
	<polygon class="st289" points="32.93,40.33 33.57,41.13 33.57,39.69 	"/>
	<polygon class="st289" points="33.57,39.69 33.57,26.73 27.81,33.93 32.93,40.33 	"/>
	<polyline class="st290" points="37.89,16.65 42.21,26.73 49.41,33.93 39.33,33.93 33.57,26.73 	"/>
	<polygon class="st291" points="42.21,41.13 49.41,33.93 39.33,33.93 	"/>
	<polygon class="st103" points="66.69,42.57 60.93,33.93 49.41,48.33 	"/>
	<polygon class="st228" points="43.65,76.41 42.21,77.13 43.65,78.57 	"/>
	<polygon class="st292" points="43.65,78.57 46.53,77.13 45.09,75.69 43.65,76.41 	"/>
	<polygon class="st293" points="40.77,78.57 42.21,77.13 40.77,75.69 40.77,77.13 	"/>
	<polygon class="st294" points="43.65,78.57 42.21,77.13 40.77,78.57 42.21,78.57 	"/>
	<polygon class="st295" points="43.65,78.57 45.09,78.57 46.53,78.57 46.53,77.13 	"/>
	<polygon class="st296" points="36.45,75.69 35.01,77.13 37.89,77.13 	"/>
	<polygon class="st297" points="73.89,82.89 73.89,81.45 71.01,81.45 	"/>
	<polygon class="st298" points="71.01,84.33 72.45,84.33 71.01,81.45 69.57,84.33 	"/>
	<polygon class="st299" points="69.57,81.45 69.57,80.01 68.13,81.45 	"/>
	<polygon class="st300" points="68.13,82.89 71.01,81.45 69.57,81.45 68.13,81.45 	"/>
	<polygon class="st301" points="69.57,80.01 73.89,81.45 72.45,80.01 71.01,80.01 	"/>
	<polygon class="st302" points="69.57,84.33 71.01,81.45 68.13,82.89 	"/>
	<polygon class="st303" points="73.89,82.89 71.01,81.45 72.45,84.33 	"/>
	<polygon class="st304" points="69.57,81.45 71.01,81.45 73.89,81.45 69.57,80.01 	"/>
	<polygon class="st305" points="59.49,108.81 58.05,107.37 53.73,110.25 	"/>
	<polygon class="st274" points="62.37,110.25 63.81,107.37 59.49,108.81 	"/>
	<polygon class="st306" points="43.65,55.53 43.65,64.17 55.17,64.17 	"/>
	<polygon class="st307" points="53.73,120.33 53.73,127.53 60.93,121.77 53.73,114.57 	"/>
	<polygon class="st125" points="60.93,128.97 65.25,124.65 60.93,121.77 	"/>
	<polygon class="st308" points="7.65,134.73 -0.75,141.91 7.65,141.93 	"/>
	<polygon class="st309" points="13.41,156.33 23.49,160.65 23.49,152.01 	"/>
	<polygon class="st6" points="37.89,137.61 50.85,126.09 37.89,126.09 	"/>
	<polyline class="st105" points="30.69,87.21 30.69,78.57 35.01,77.13 	"/>
	<polyline class="st234" points="37.89,77.13 37.89,80.01 40.77,78.57 	"/>
	<polyline class="st26" points="53.73,147.6 53.73,153.45 59.6,147.6 	"/>
	<polyline class="st310" points="33.6,156.24 37.92,156.24 40.8,159.12 36.48,157.68 	"/>
	<polygon class="st105" points="33.6,71.28 33.6,75.6 30.72,78.48 	"/>
	<polyline class="st104" points="49.43,72.72 46.53,75.69 50.88,75.69 	"/>
	<polygon class="st104" points="65.28,77.04 62.4,75.6 66.72,71.28 	"/>
	<polyline class="st104" points="73.92,74.25 69.5,74.25 66.56,71.28 	"/>
	<polyline class="st104" points="66.72,79.92 72.48,77.04 69.6,77.04 	"/>
	<polygon class="st136" points="81.12,78.48 79.68,75.45 81.12,71.28 	"/>
	<polyline class="st36" points="71.04,92.88 67.99,97.28 70.94,100.11 71.04,100.21 	"/>
	<polyline class="st276" points="53.76,110.16 58.08,107.28 59.52,108.72 	"/>
	<polyline class="st310" points="85.83,154.47 85.9,154.55 96.24,148.72 93.92,147.73 	"/>
	<polyline class="st125" points="65.12,128.88 68.16,120.24 65.12,124.56 	"/>
	<polygon class="st158" points="23.52,111.6 42.24,111.6 37.92,101.52 	"/>
	<polygon class="st28" points="37.92,101.52 48,92.88 49.44,95.76 49.44,101.52 	"/>
	<polygon class="st233" points="37.89,77.13 40.77,78.57 40.77,77.13 	"/>
	<polyline class="st311" points="37.89,77.13 40.77,78.57 37.89,77.13 40.77,78.57 37.89,80.01 40.77,80.01 40.77,78.57 
		37.89,77.13 37.89,80.01 37.89,77.13 40.77,78.57 40.77,81.45 46.53,78.57 	"/>
	<polyline class="st94" points="32.13,55.53 35.01,61.29 23.91,68.61 23.49,68.49 	"/>
	<polyline class="st202" points="11.43,71.37 11.97,71.37 11.8,71.96 	"/>
	<polyline class="st233" points="43.65,76.41 43.65,75.69 45.09,75.69 	"/>
	<polyline class="st290" points="14.85,26.46 27.81,16.65 27.81,25.29 20.61,33.93 20.61,41.13 9.09,41.13 14.85,26.73 	"/>
	<polyline class="st290" points="20.61,41.13 27.81,33.93 27.81,25.29 20.61,33.93 	"/>
	<path class="st312" d="M89.73,29.61"/>
	<polyline class="st312" points="89.73,29.61 92.61,39.69 75.33,42.57 	"/>
	<polyline class="st154" points="9.09,52.65 9.09,59.85 23.49,68.49 32.13,55.53 9.09,52.65 9.09,41.13 20.61,46.89 	"/>
	<polyline class="st313" points="80.85,71.64 83.7,71.73 92.34,50.13 88.02,55.89 	"/>
	<polyline class="st314" points="66.69,16.65 79.65,23.85 75.33,33.93 	"/>
	<polyline class="st211" points="42.21,72.81 36.45,72.81 37.89,69.93 42.21,69.93 	"/>
	<polygon class="st106" points="37.89,69.93 36.45,72.81 33.57,71.37 	"/>
	<polygon class="st223" points="40.77,80.01 40.77,81.45 37.89,80.01 	"/>
	<polyline class="st149" points="59.49,154.89 60.93,154.17 60.93,157.77 58.05,157.77 	"/>
	<polyline class="st63" points="7.65,152.01 0,141.93 7.65,141.93 	"/>
</g>
</svg>
