<?xml version="1.0" encoding="utf-8"?>
<!-- Generator: Adobe Illustrator 24.1.2, SVG Export Plug-In . SVG Version: 6.00 Build 0)  -->
<svg version="1.1" id="Poly" xmlns="http://www.w3.org/2000/svg" xmlns:xlink="http://www.w3.org/1999/xlink" x="0px" y="0px"
	 viewBox="0 0 97 160.6" xml:space="preserve">
<style type="text/css">
	.st0{fill:#8D919F;}
	.st1{fill:#777C89;}
	.st2{fill:#593D2D;}
	.st3{fill:#3F2A1F;}
	.st4{fill:#684635;}
	.st5{fill:#543829;}
	.st6{fill:#583D2F;}
	.st7{fill:#664739;}
	.st8{fill:#72503D;}
	.st9{fill:#17120E;}
	.st10{fill:#624434;}
	.st11{fill:#7D5642;}
	.st12{fill:#322119;}
	.st13{fill:#654434;}
	.st14{fill:#4E3428;}
	.st15{fill:#211713;}
	.st16{fill:#583C30;}
	.st17{fill:#825A48;}
	.st18{fill:#3D312E;}
	.st19{fill:#956E5B;}
	.st20{fill:#CFA799;}
	.st21{fill:#674E44;}
	.st22{fill:#876052;}
	.st23{fill:#957268;}
	.st24{fill:#987065;}
	.st25{fill:#886358;}
	.st26{fill:#5D483B;}
	.st27{fill:#8A645C;}
	.st28{fill:#30231F;}
	.st29{fill:#070607;}
	.st30{fill:#0B0C0E;}
	.st31{fill:#141519;}
	.st32{fill:#BA9285;}
	.st33{fill:#101011;}
	.st34{fill:#8A685B;}
	.st35{fill:#AB8276;}
	.st36{fill:#91716B;}
	.st37{fill:#151416;}
	.st38{fill:#9D776B;}
	.st39{fill:#100D0C;}
	.st40{fill:#121213;}
	.st41{fill:#5D4235;}
	.st42{fill:#050405;}
	.st43{fill:#0F0F11;}
	.st44{fill:#131315;}
	.st45{fill:#101013;}
	.st46{fill:#060506;}
	.st47{fill:#0D0C0E;}
	.st48{fill:#0A090A;}
	.st49{fill:#161616;}
	.st50{fill:#5A443D;}
	.st51{fill:#735D56;}
	.st52{fill:#372824;}
	.st53{fill:#7D655C;}
	.st54{fill:#523B31;}
	.st55{fill:#563D2D;}
	.st56{fill:#201A16;}
	.st57{fill:#4D3A33;}
	.st58{fill:#543C32;}
	.st59{fill:#1C1716;}
	.st60{fill:#38281F;}
	.st61{fill:#89736E;}
	.st62{fill:#AF8171;}
	.st63{fill:#5A3E36;}
	.st64{fill:#0C0909;}
	.st65{fill:#64666F;}
	.st66{fill:#7B7D88;}
	.st67{fill:#54565E;}
	.st68{fill:#6C4E42;}
	.st69{fill:#454850;}
	.st70{fill:#1F2026;}
	.st71{fill:#554036;}
	.st72{fill:#2E1F1B;}
	.st73{fill:#5B463D;}
	.st74{fill:#8F6C5C;}
	.st75{fill:#513729;}
	.st76{fill:#734F3E;}
	.st77{fill:#696A74;}
	.st78{fill:#5E6167;}
	.st79{fill:#5F6168;}
	.st80{fill:#0D0D0D;}
	.st81{fill:#969BAA;}
	.st82{fill:#74798A;}
	.st83{fill:#797D8A;}
	.st84{fill:#82848F;}
	.st85{fill:#131416;}
	.st86{fill:#141417;}
	.st87{fill:#0A0909;}
	.st88{fill:#19181A;}
	.st89{fill:#725F5D;}
	.st90{fill:#232429;}
	.st91{fill:#1F1E21;}
	.st92{fill:#202023;}
	.st93{fill:#462F23;}
	.st94{fill:#9B7366;}
	.st95{fill:#9D786B;}
	.st96{fill:#785A4E;}
	.st97{fill:#AF8678;}
	.st98{fill:#9B7264;}
	.st99{fill:#3F291E;}
	.st100{fill:#77584F;}
	.st101{fill:#7A594E;}
	.st102{fill:#251912;}
	.st103{fill:#AC8477;}
	.st104{fill:#A98478;}
	.st105{fill:#9D786C;}
	.st106{fill:#523F35;}
	.st107{fill:#0F0F0F;}
	.st108{fill:#AE887A;}
	.st109{fill:#17171A;}
	.st110{fill:#35241B;}
	.st111{fill:#956E60;}
	.st112{fill:#36271F;}
	.st113{fill:#523830;}
	.st114{fill:#251913;}
	.st115{fill:#9E7261;}
	.st116{fill:#8B665A;}
	.st117{fill:#31211A;}
	.st118{fill:#A37566;}
	.st119{fill:#2B2A2F;}
	.st120{fill:#1E1F25;}
	.st121{fill:#3C3C40;}
	.st122{fill:#131415;}
	.st123{fill:#0D0D0E;}
	.st124{fill:#1C1D20;}
	.st125{fill:#0A0A0A;}
	.st126{fill:#2E2D31;}
	.st127{fill:#161515;}
	.st128{fill:#383C46;}
	.st129{fill:#07070A;}
	.st130{fill:#17181C;}
	.st131{fill:#25272F;}
	.st132{fill:#2F3137;}
	.st133{fill:#151619;}
	.st134{fill:#2C2F38;}
	.st135{fill:#09080B;}
	.st136{fill:#25262E;}
	.st137{fill:#141414;}
	.st138{fill:#4B3732;}
	.st139{fill:#806966;}
	.st140{fill:#61514A;}
	.st141{fill:#53433B;}
	.st142{fill:#6F5A58;}
	.st143{fill:#888D9B;}
	.st144{fill:#755C55;}
	.st145{fill:#665350;}
	.st146{fill:#53413D;}
	.st147{fill:#594439;}
	.st148{fill:#2D2723;}
	.st149{fill:#C5A198;}
	.st150{fill:#100F0F;}
	.st151{fill:#47372C;}
	.st152{fill:#51545B;}
	.st153{fill:#4E372C;}
	.st154{fill:#AB806E;}
	.st155{fill:#878C9B;}
	.st156{fill:#5E5F6A;}
	.st157{fill:#8D93A1;}
	.st158{fill:#8E94A4;}
	.st159{fill:#6D7282;}
	.st160{fill:#787C89;}
	.st161{fill:#6A4C41;}
	.st162{fill:#755E58;}
	.st163{fill:#796667;}
	.st164{fill:#6F737E;}
	.st165{fill:#7F808D;}
	.st166{fill:#8F95A1;}
	.st167{fill:#32353A;}
	.st168{fill:#727582;}
	.st169{fill:#B58C83;}
	.st170{fill:#1C1B1B;}
	.st171{fill:#232122;}
	.st172{fill:#1D1F23;}
	.st173{fill:#191919;}
	.st174{fill:#31353F;}
	.st175{fill:#343335;}
	.st176{fill:#886A62;}
	.st177{fill:#5A4841;}
	.st178{fill:#624E46;}
	.st179{fill:#1F0F0A;}
	.st180{fill:#6F4C43;}
	.st181{fill:#735E57;}
	.st182{fill:#3B2016;}
	.st183{fill:#24262F;}
	.st184{fill:#523C36;}
	.st185{fill:#846157;}
	.st186{fill:#725041;}
	.st187{fill:#46352A;}
	.st188{fill:#775242;}
	.st189{fill:#785242;}
	.st190{fill:#A37661;}
	.st191{fill:#8F8F97;}
	.st192{fill:#AB7F69;}
	.st193{fill:#878996;}
	.st194{fill:#8F6554;}
	.st195{fill:#986B57;}
	.st196{fill:#4D362C;}
	.st197{fill:#6F747E;}
	.st198{fill:#737782;}
	.st199{fill:#3F2F26;}
	.st200{fill:#584438;}
	.st201{fill:#64676F;}
	.st202{fill:#9395A1;}
	.st203{fill:#707481;}
	.st204{fill:#5D5F65;}
	.st205{fill:#797C88;}
	.st206{fill:#818692;}
	.st207{fill:#2E2B2F;}
	.st208{fill:#2D1810;}
	.st209{fill:#56433B;}
	.st210{fill:#7A5C4F;}
	.st211{fill:#989CA7;}
	.st212{fill:#6E5346;}
	.st213{fill:#614B44;}
	.st214{fill:#85695F;}
	.st215{fill:#886B62;}
	.st216{fill:#5A362A;}
	.st217{fill:#684133;}
	.st218{fill:#7C818F;}
	.st219{fill:#7E828E;}
	.st220{fill:#707480;}
	.st221{fill:#705242;}
	.st222{fill:#644537;}
	.st223{fill:#594943;}
	.st224{fill:#685045;}
	.st225{fill:#6D4E44;}
	.st226{fill:#402E25;}
	.st227{fill:#71523F;}
	.st228{fill:#717684;}
	.st229{fill:#261A14;}
	.st230{fill:#2C1F18;}
	.st231{fill:#16110E;}
	.st232{fill:#2F2928;}
	.st233{fill:#2A1E1A;}
	.st234{fill:#3A2F2E;}
	.st235{fill:#342A27;}
	.st236{fill:#40332F;}
	.st237{fill:#443430;}
	.st238{fill:#322622;}
	.st239{fill:#2B2521;}
	.st240{fill:#181717;}
	.st241{fill:#231B18;}
	.st242{fill:#181514;}
	.st243{fill:#140F0B;}
	.st244{fill:#1F1A19;}
	.st245{fill:#221813;}
	.st246{fill:#5F4741;}
	.st247{fill:#5D4644;}
	.st248{fill:#43332F;}
	.st249{fill:#644942;}
	.st250{fill:#52413B;}
	.st251{fill:#402A25;}
	.st252{fill:#2D2623;}
	.st253{fill:#151212;}
	.st254{fill:#332721;}
	.st255{fill:#151312;}
	.st256{fill:#4A3932;}
	.st257{fill:#4C352E;}
	.st258{fill:#57413B;}
	.st259{fill:#432F29;}
	.st260{fill:#16110F;}
	.st261{fill:#1A130E;}
	.st262{fill:#48352E;}
	.st263{fill:#231812;}
	.st264{fill:#1F1A17;}
	.st265{fill:#68504C;}
	.st266{fill:#3B2C27;}
	.st267{fill:#514041;}
	.st268{fill:#564B46;}
	.st269{fill:#261D1A;}
	.st270{fill:#8E7F7A;}
	.st271{fill:#584C48;}
	.st272{fill:#544644;}
	.st273{fill:#604E4A;}
	.st274{fill:#B19A9B;}
	.st275{fill:#633F32;}
	.st276{fill:#B58879;}
	.st277{fill:#90695E;}
	.st278{fill:#B08576;}
	.st279{fill:#79523E;}
	.st280{fill:#C09384;}
	.st281{fill:#936D60;}
	.st282{fill:#BB908A;}
	.st283{fill:#AF8174;}
	.st284{fill:#6C4A39;}
	.st285{fill:#5E4131;}
	.st286{fill:#B79089;}
	.st287{fill:#614232;}
	.st288{fill:#B68E85;}
	.st289{fill:#9B6758;}
	.st290{fill:#B28B85;}
	.st291{fill:#AF7F71;}
	.st292{fill:#865748;}
	.st293{fill:#89676D;}
	.st294{fill:#523F3B;}
	.st295{fill:#483D3B;}
	.st296{fill:#1C120F;}
	.st297{fill:#B1828D;}
	.st298{fill:#3C2E2A;}
	.st299{fill:#402C27;}
	.st300{fill:#5C4743;}
	.st301{fill:#B79A9A;}
	.st302{fill:#B09B8B;}
	.st303{fill:#665356;}
	.st304{fill:#C3AD97;}
	.st305{fill:#835D66;}
	.st306{fill:#1E1511;}
	.st307{fill:#523D37;}
	.st308{fill:#4B3A35;}
	.st309{fill:#846566;}
	.st310{fill:#6A5452;}
	.st311{fill:#45342D;}
	.st312{fill:#967076;}
	.st313{fill:#92646F;}
	.st314{fill:#372720;}
	.st315{fill:#131314;}
	.st316{fill:#151516;}
	.st317{fill:#33353D;}
	.st318{fill:#19191C;}
	.st319{fill:#2E3038;}
	.st320{fill:#121214;}
	.st321{fill:#171413;}
	.st322{fill:#110C0B;}
	.st323{fill:#130D0C;}
	.st324{fill:#2B211C;}
	.st325{fill:#3A2925;}
	.st326{fill:#292728;}
	.st327{fill:#17100D;}
	.st328{fill:#130E0F;}
	.st329{fill:#140F0F;}
	.st330{fill:#2D2626;}
	.st331{fill:#191311;}
	.st332{fill:#221C16;}
	.st333{fill:#191615;}
	.st334{fill:#D1C8C0;}
	.st335{fill:#B38B7D;}
	.st336{fill:#805E53;}
	.st337{fill:#585B64;}
	.st338{fill:#7D7E8A;}
	.st339{fill:#5C6068;}
</style>
<g>
	<polygon class="st0" points="73.9,160.6 73.9,160.6 73.9,160.6 	"/>
	<polygon class="st1" points="73.9,160.6 74,160.6 73.9,160.6 	"/>
	<polygon class="st2" points="46.7,143.2 37.9,137.6 37.9,147.7 46.5,143.4 	"/>
	<polygon class="st3" points="53.7,147.7 46.7,143.2 46.5,143.4 37.9,147.7 49.4,147.7 	"/>
	<polygon class="st4" points="37.9,147.7 37.9,156.3 42.2,152 	"/>
	<polygon class="st5" points="49.4,147.7 37.9,147.7 42.2,152 	"/>
	<polygon class="st6" points="37.9,126.1 20.6,137.6 37.9,137.6 	"/>
	<polygon class="st7" points="53.7,153.4 53.7,147.7 49.4,147.7 	"/>
	<polygon class="st8" points="20.6,137.6 29.3,144.8 37.9,137.6 	"/>
	<polygon class="st9" points="50.8,126.1 37.9,126.1 37.9,137.6 	"/>
	<polygon class="st10" points="29.3,144.8 37.9,147.7 37.9,137.6 	"/>
	<polygon class="st11" points="37.9,156.3 43.7,156.3 42.2,152 	"/>
	<polygon class="st12" points="59.5,154.9 59.5,153.4 53.7,153.4 	"/>
	<polygon class="st12" points="58,157.8 59.5,154.9 53.7,153.4 	"/>
	<polygon class="st13" points="42.2,152 43.7,156.3 49.4,147.7 	"/>
	<polygon class="st14" points="53.7,158.9 58,157.8 53.7,153.4 	"/>
	<polygon class="st15" points="59.5,153.4 59.5,147.7 53.7,153.4 	"/>
	<polygon class="st16" points="49.4,156.3 53.3,158.9 53.7,158.9 53.7,153.4 	"/>
	<polygon class="st17" points="43.7,156.3 49.4,156.3 49.4,147.7 	"/>
	<polygon class="st7" points="49.4,147.7 49.4,156.3 53.7,153.4 	"/>
	<polygon class="st18" points="22,77.1 19.2,78.6 22,78.6 	"/>
	<polygon class="st19" points="20.6,95.8 48,93 30.7,87.2 	"/>
	<polygon class="st20" points="30.7,87.2 48,93 42.2,87.2 	"/>
	<polygon class="st21" points="22,87.2 22,88.7 20.6,95.8 30.7,87.2 	"/>
	<polygon class="st21" points="52.3,87.2 53.2,85.8 42.2,87.2 48,93 49.4,91.5 	"/>
	<polygon class="st22" points="22,87.2 30.7,78.6 22,77.1 22,78.6 	"/>
	<polygon class="st18" points="22,87.2 22,78.6 19.2,78.6 22,88.7 	"/>
	<polygon class="st18" points="19.2,78.6 19.2,95.8 20.6,95.8 22,88.7 	"/>
	<polygon class="st23" points="53.7,129 53.7,127.5 53.7,120.3 46.5,120.3 	"/>
	<polygon class="st24" points="45.9,118.9 46,119.3 46.5,118.9 	"/>
	<polygon class="st25" points="49.4,111.7 49.7,111.6 49.3,111.2 	"/>
	<polygon class="st26" points="37.9,137.6 53.7,129 46.5,120.3 46,119.3 37.9,126.1 50.8,126.1 	"/>
	<polygon class="st24" points="53.7,114.6 43.9,114.6 45.9,118.9 46.5,118.9 46,119.3 46.5,120.3 	"/>
	<polygon class="st27" points="53.7,120.3 53.7,114.6 46.5,120.3 	"/>
	<polygon class="st28" points="50.8,101.6 56.6,101.6 49.4,95.8 49.4,101.6 	"/>
	<polygon class="st25" points="49.7,111.6 49.4,111.7 49.3,111.2 48,110.3 40.8,104.5 37.9,101.6 43.9,114.6 53.7,114.6 	"/>
	<polygon class="st29" points="66.7,49.8 75.3,42.6 66.7,42.6 	"/>
	<polygon class="st30" points="75.3,42.6 75.3,33.9 66.7,42.6 	"/>
	<polygon class="st31" points="66.7,33.9 60.9,33.9 66.7,42.6 	"/>
	<polygon class="st32" points="66.7,71.4 81.1,71.4 66.7,64.2 	"/>
	<polygon class="st33" points="75.3,33.9 66.7,33.9 66.7,42.6 	"/>
	<polygon class="st34" points="33.6,71.4 22,77.1 30.7,78.6 	"/>
	<polygon class="st35" points="66.7,64.2 79.7,57 66.7,55.5 	"/>
	<polygon class="st36" points="81.1,71.4 79.7,57 66.7,64.2 	"/>
	<polygon class="st37" points="48.8,49.1 49.4,48.3 42.2,41.1 33.6,51.2 43.7,49.8 	"/>
	<polygon class="st38" points="66.7,55.5 79.7,57 72.4,51.2 	"/>
	<polygon class="st39" points="66.7,50.5 72.4,51.2 75.3,42.6 66.7,49.8 	"/>
	<polygon class="st40" points="20.6,41.1 33.6,51.2 33.6,41.1 	"/>
	<polygon class="st41" points="59.5,147.7 53.7,137.6 53.7,147.7 	"/>
	<polygon class="st42" points="32.9,40.3 32.8,40.4 32.9,40.3 27.8,33.9 20.6,41.1 33.6,41.1 	"/>
	<polygon class="st43" points="33.6,41.1 33.6,51.2 42.2,41.1 	"/>
	<polygon class="st44" points="49.4,48.3 49.4,33.9 42.2,41.1 	"/>
	<polygon class="st45" points="42.2,26.7 33.6,26.7 39.3,33.9 	"/>
	<polygon class="st46" points="60.9,33.9 49.4,33.9 49.4,48.3 	"/>
	<polygon class="st47" points="33.6,39.7 33.6,41.1 42.2,41.1 39.3,33.9 	"/>
	<polygon class="st48" points="49.4,33.9 42.2,26.7 39.3,33.9 	"/>
	<polygon class="st49" points="39.3,33.9 33.6,26.7 33.6,39.7 	"/>
	<polygon class="st50" points="60.9,121.8 60.9,113.1 53.7,114.6 	"/>
	<polygon class="st51" points="53.7,129 60.9,129 53.7,127.5 	"/>
	<polygon class="st51" points="60.9,129 60.9,121.8 53.7,127.5 	"/>
	<polygon class="st52" points="60.9,101.6 59.5,101.6 56.6,100.2 53.7,95.8 52.3,95.8 49.4,95.8 56.6,101.6 65.3,104.5 69.6,105.9 
		63.8,100.2 	"/>
	<polygon class="st53" points="73.9,74.3 81.1,71.4 66.7,71.4 	"/>
	<polygon class="st54" points="53.7,147.7 53.7,137.6 46.7,143.2 	"/>
	<polygon class="st55" points="46.7,143.2 53.7,137.6 37.9,137.6 	"/>
	<polygon class="st56" points="53.7,137.6 60.9,129 53.7,129 	"/>
	<polygon class="st26" points="37.9,137.6 38.6,137.6 53,137.6 53.7,137.6 53.7,129 	"/>
	<polygon class="st57" points="69.6,105.9 71,100.2 63.8,100.2 	"/>
	<polygon class="st58" points="65.3,98.7 63.8,100.2 71,100.2 68.1,97.3 	"/>
	<polygon class="st59" points="78.2,81.4 78.2,78.6 73.9,80 	"/>
	<polygon class="st60" points="72.4,77.1 73.9,80 78.2,78.6 73.9,77.1 	"/>
	<polygon class="st61" points="79.7,75.7 81.1,71.4 73.9,74.3 	"/>
	<polygon class="st62" points="72.4,85.8 71,85.8 71,93 76.8,85.8 73.9,85.8 	"/>
	<polygon class="st62" points="65.3,93 71,93 71,85.8 	"/>
	<polygon class="st63" points="68.1,97.3 71,93 65.3,93 	"/>
	<polygon class="st64" points="79.7,57 75.3,42.6 72.4,51.2 	"/>
	<polygon class="st65" points="17.7,134.7 12,139.1 12,141.9 	"/>
	<polygon class="st66" points="17.7,134.7 17.7,134.7 12,141.9 17.7,141.9 	"/>
	<polygon class="st67" points="12,141.9 7.7,152 17.7,141.9 	"/>
	<polygon class="st68" points="65.4,77.1 62.4,75.6 62.4,78.6 	"/>
	<polygon class="st69" points="63.8,147.7 63.8,140.5 59.5,147.7 	"/>
	<polygon class="st70" points="49.4,26.7 42.2,26.7 49.4,33.9 	"/>
	<polygon class="st71" points="63.8,140.5 53.7,137.6 59.5,147.7 	"/>
	<polygon class="st72" points="69.6,77.1 65.3,77.1 66.7,80 	"/>
	<polygon class="st73" points="37.9,72.8 36.5,72.8 33.6,75.7 42.2,72.8 	"/>
	<polygon class="st74" points="22,87.2 30.7,87.2 30.7,78.6 	"/>
	<polygon class="st72" points="66.7,80 65.3,77.1 63.8,82.9 	"/>
	<polygon class="st75" points="23.5,141.9 27.8,149.1 28.1,148.3 	"/>
	<polygon class="st76" points="28.1,148.3 28.6,149 37.9,147.7 29.3,144.8 	"/>
	<polygon class="st77" points="17.7,134.7 17.7,141.9 23.5,141.9 19.2,136.2 	"/>
	<polygon class="st78" points="7.7,152 17.3,145.9 17,145.5 17.3,145.9 23.5,141.9 17.7,141.9 	"/>
	<polygon class="st79" points="27.8,149.1 28.6,149 28.1,148.3 	"/>
	<polygon class="st80" points="82.5,51.2 75.3,42.6 79.7,57 	"/>
	<polygon class="st81" points="85.8,154.6 93.9,147.8 93.6,147.7 73.9,147.7 	"/>
	<polygon class="st82" points="82.5,143.4 73.9,147.7 93.6,147.7 86.8,144.8 73.9,139.1 73.9,147.7 	"/>
	<polygon class="st83" points="73.9,160.6 73.9,147.7 60.9,157.8 	"/>
	<polygon class="st84" points="27.1,156.3 33.6,156.3 30.7,152 	"/>
	<polygon class="st0" points="86.4,154.9 96.6,154.9 96.2,148.8 85.9,154.6 	"/>
	<polygon class="st0" points="85.4,154.9 86.4,154.9 85.9,154.6 	"/>
	<polygon class="st85" points="20.6,21 20.6,33.9 27.8,25.3 	"/>
	<polygon class="st86" points="10.5,33.9 20.6,41.1 20.6,33.9 	"/>
	<polygon class="st87" points="20.6,46.9 33.6,51.2 20.6,41.1 	"/>
	<polygon class="st88" points="20.6,33.9 20.6,41.1 27.8,33.9 	"/>
	<polygon class="st89" points="12,123.2 12,127.5 12,129 20.6,126.1 	"/>
	<polygon class="st90" points="27.8,25.3 20.6,33.9 27.8,33.9 	"/>
	<polygon class="st91" points="10.5,69.9 11.4,71.4 11.7,71.4 	"/>
	<polygon class="st92" points="9.1,41.1 20.6,46.9 20.6,41.1 	"/>
	<polygon class="st93" points="69.6,74.3 66.7,71.4 65.3,77.1 	"/>
	<polygon class="st94" points="66.7,64.2 66.7,55.5 55.2,55.5 	"/>
	<polygon class="st95" points="60.9,49.8 55.2,48.3 49.9,49 55.2,55.5 65.5,50.3 	"/>
	<polygon class="st96" points="66.7,55.5 72.4,51.2 66.7,50.5 66.7,51.2 	"/>
	<polygon class="st97" points="55.2,64.2 66.7,64.2 55.2,55.5 	"/>
	<polygon class="st98" points="66.7,71.4 66.7,64.2 55.2,64.2 	"/>
	<polygon class="st99" points="62.4,75.7 66.7,71.4 56.6,74.3 	"/>
	<polygon class="st100" points="55.2,55.5 66.7,55.5 66.7,51.2 66.7,50.5 65.5,50.3 	"/>
	<polygon class="st101" points="56.6,74.3 66.7,71.4 55.2,71.4 	"/>
	<polygon class="st102" points="48,75.7 50.8,77.1 52.3,78.6 56.6,78.6 50.8,75.7 	"/>
	<polygon class="st103" points="55.2,71.4 66.7,71.4 55.2,64.2 	"/>
	<path class="st104" d="M46.5,69.9c0.8,0,2,0,2.9,0c0.8,0,1.4,0,1.4,0l4.3,1.4l-11.5-7.2l-5.8,5.8h4.3
		C42.2,69.9,45.1,69.9,46.5,69.9z"/>
	<polygon class="st105" points="55.2,64.2 43.7,64.2 55.2,71.4 	"/>
	<polygon class="st73" points="36.5,72.8 33.6,71.4 33.6,75.7 	"/>
	<polygon class="st106" points="66.7,50.5 66.7,49.8 65.5,50.3 	"/>
	<polygon class="st100" points="55.2,55.5 43.7,55.5 55.2,64.2 	"/>
	<polygon class="st107" points="55.2,48.3 60.9,49.8 65.5,50.3 66.7,49.8 66.7,42.6 49.4,48.3 49.9,49 	"/>
	<polygon class="st108" points="49.9,49 48.8,49.1 43.7,55.5 55.2,55.5 	"/>
	<polygon class="st109" points="49.4,48.3 48.8,49.1 49.9,49 	"/>
	<polygon class="st110" points="49.4,72.8 48,72.8 42.2,72.8 46.5,75.7 	"/>
	<polygon class="st99" points="52.3,78.6 53.7,80 58,78.6 62.4,75.7 56.6,74.3 56.6,78.6 	"/>
	<polygon class="st102" points="56.6,78.6 56.6,74.3 53.7,74.3 	"/>
	<polygon class="st111" points="33.5,75.7 30.6,78.6 35,77.1 	"/>
	<polygon class="st112" points="37.9,75.7 40.8,75.7 42.2,75.7 43.7,75.7 45.1,75.7 46.5,75.7 42.2,72.8 33.6,75.7 36.5,75.7 	"/>
	<polygon class="st113" points="52.3,81.4 53.6,85.3 53.7,85.1 53.7,80 	"/>
	<polygon class="st102" points="56.6,78.6 53.7,74.3 50.8,75.7 	"/>
	<polygon class="st114" points="53.7,74.3 50.8,72.8 49.4,72.8 50.8,75.7 	"/>
	<polygon class="st115" points="49.4,81.4 48,81.4 46.5,81.4 43.7,81.4 40.8,81.4 37.9,80 42.2,87.2 52.3,81.4 	"/>
	<polygon class="st116" points="63.8,82.9 65.3,77.1 62.4,78.6 63.8,85.8 65.3,93 71,85.8 66.7,84.3 	"/>
	<polygon class="st117" points="69.5,80 71,80 72.4,80 73.9,80 72.4,76.9 66.6,80 	"/>
	<polygon class="st22" points="36.5,78.6 35,77.1 30.7,87.2 37.9,80 	"/>
	<polygon class="st19" points="30.7,87.2 42.2,87.2 37.9,80 	"/>
	<polygon class="st118" points="52.3,81.4 42.2,87.2 53.2,85.8 53.6,85.3 	"/>
	<polygon class="st113" points="53.7,85.1 55.2,82.9 58,78.6 53.7,80 	"/>
	<polygon class="st119" points="92.6,49.8 92.6,44 75.3,42.6 	"/>
	<polygon class="st120" points="92.6,39.7 86.8,32.5 89.7,32.5 89.7,29.6 75.3,42.6 	"/>
	<polygon class="st44" points="82.5,51.2 92.6,49.8 75.3,42.6 	"/>
	<polygon class="st121" points="92.6,39.7 89.7,32.5 86.8,32.5 	"/>
	<polygon class="st122" points="92.6,44 92.6,39.7 75.3,42.6 	"/>
	<polygon class="st123" points="88.3,55.5 92.6,49.8 82.5,51.2 	"/>
	<polygon class="st124" points="84,65.6 86.8,65.6 88.3,55.5 81.1,71.4 	"/>
	<polygon class="st125" points="79.7,57 88.3,55.5 82.5,51.2 	"/>
	<polygon class="st126" points="84,71.4 86.8,65.6 84,65.6 	"/>
	<polygon class="st127" points="81.1,71.4 88.3,55.5 79.7,57 	"/>
	<polygon class="st128" points="66.7,33.9 66.7,16.6 59.5,31 66.7,16.6 62.4,16.6 49.4,16.6 60.9,33.9 	"/>
	<polygon class="st129" points="75.3,33.9 71,25.3 71,25.3 71,25.3 66.7,16.6 66.7,33.9 	"/>
	<polygon class="st130" points="49.4,33.9 60.9,33.9 49.4,16.6 49.4,26.7 	"/>
	<polygon class="st131" points="72.4,18.1 66.7,16.6 71,25.3 	"/>
	<polygon class="st132" points="89.7,29.6 84,25.3 79.7,23.9 75.3,33.9 	"/>
	<polygon class="st133" points="75.3,42.6 89.7,29.6 75.3,33.9 	"/>
	<polygon class="st134" points="71,25.3 79.7,23.9 72.4,18.1 	"/>
	<polygon class="st135" points="75.3,33.9 79.7,23.9 71,25.3 	"/>
	<polygon class="st136" points="49.4,26.7 49.4,16.6 42.2,26.7 	"/>
	<polygon class="st137" points="81.1,71.4 84,71.4 84,65.6 	"/>
	<polygon class="st138" points="67.4,107.7 68.1,107.4 67.4,107.7 64.2,110.4 72.4,114.6 69.6,105.9 	"/>
	<polygon class="st139" points="65.3,129 65.3,124.7 60.9,129 	"/>
	<polygon class="st140" points="60.9,121.8 68.1,120.3 60.9,113.1 	"/>
	<polygon class="st141" points="64,110.6 68.1,120.3 72.4,114.6 64.2,110.4 	"/>
	<polygon class="st142" points="60.9,113.1 68.1,120.3 64,110.6 	"/>
	<polygon class="st139" points="65.3,124.7 68.1,120.3 60.9,121.8 	"/>
	<polygon class="st143" points="73.9,139.1 68.1,133.3 66.6,130.9 63.8,140.5 	"/>
	<polygon class="st144" points="63.8,140.5 66.6,130.9 66.3,130.6 53.7,137.6 	"/>
	<polygon class="st145" points="66.3,130.6 65.3,129 53.7,137.6 	"/>
	<polygon class="st146" points="53.7,137.6 65.3,129 60.9,129 	"/>
	<polygon class="st147" points="75.3,105.9 69.6,105.9 72.4,114.6 75.3,107.4 78.2,100.2 79.7,95.8 69.6,105.9 	"/>
	<polygon class="st148" points="79.7,81.4 78.2,81.4 78.2,84.3 79.4,84.3 79.7,82.9 81.1,78.6 78.2,81.4 	"/>
	<polygon class="st149" points="76.8,85.8 78.2,91.5 79.4,84.3 78.2,84.3 	"/>
	<polygon class="st150" points="81.1,78.6 84,71.4 81.1,71.4 	"/>
	<polygon class="st151" points="78.2,81.4 81.1,78.6 78.2,78.6 	"/>
	<polygon class="st152" points="63.8,147.7 68.5,143.7 68.1,143.4 68.5,143.7 73.9,139.1 63.8,140.5 	"/>
	<polygon class="st153" points="69.6,105.9 79.7,95.8 71,100.2 	"/>
	<polygon class="st149" points="71,93 78.2,91.5 76.8,85.8 	"/>
	<polygon class="st149" points="79.7,95.8 78.2,91.5 71,93 	"/>
	<polygon class="st154" points="71,100.2 79.7,95.8 71,93 	"/>
	<polygon class="st155" points="12,127.5 7.7,127.5 12,129 	"/>
	<polygon class="st156" points="12,129 7.7,127.5 7.7,134.7 	"/>
	<polygon class="st157" points="-0.5,134.5 -0.8,134.8 -0.8,141.9 7.7,134.7 	"/>
	<polygon class="st155" points="12,123.2 7.7,127.5 12,127.5 	"/>
	<polygon class="st158" points="7.7,127.5 3.5,130.3 -0.5,134.5 7.7,134.7 	"/>
	<polygon class="st155" points="7.7,123.2 7.7,127.5 12,123.2 	"/>
	<polygon class="st159" points="13.4,118.9 12,118.9 12,123.2 	"/>
	<polygon class="st160" points="7.7,141.9 -0.8,141.9 -0.8,152 -0.7,152.1 	"/>
	<polygon class="st161" points="23.5,118.9 13.4,118.9 20.6,126.1 	"/>
	<polygon class="st159" points="12,118.9 7.7,123.2 12,123.2 	"/>
	<polygon class="st162" points="20.6,126.1 13.4,118.9 12,123.2 	"/>
	<polygon class="st163" points="53.7,159.2 53.8,160.6 49.4,159.2 43.6,160.6 40.8,159.2 23.5,160.6 53.9,160.6 58,159.2 	"/>
	<polygon class="st164" points="73.9,160.6 60.9,157.8 60.9,160.6 60.9,157.8 58,160.6 58,159.2 53.9,160.6 66.4,160.6 73.9,160.6 
		73.9,147.7 	"/>
	<polygon class="st1" points="85.4,154.9 85.8,154.6 73.9,147.7 73.9,160.6 73.9,160.6 81.1,152 73.9,160.6 74,160.6 81.1,157.8 	
		"/>
	<polygon class="st0" points="96.6,154.9 86.4,154.9 96.2,160.6 86.4,154.9 85.4,154.9 88.3,160.6 85.4,154.9 81,160.6 85.4,154.9 
		81.1,157.8 74,160.6 96.9,160.6 	"/>
	<polygon class="st165" points="26.4,156.3 27.1,156.3 30.7,152 23.5,152 23.5,160.6 27.1,156.3 	"/>
	<polygon class="st166" points="7.6,160.6 -0.6,152.2 -0.8,152.2 -0.8,160.6 23.5,160.6 13.4,156.3 	"/>
	<polygon class="st167" points="27.1,156.3 23.5,160.6 33.6,156.3 	"/>
	<polygon class="st168" points="36.5,157.8 33.6,156.3 23.5,160.6 40.8,159.2 	"/>
	<polygon class="st169" points="7.7,91.5 13.4,97.3 17.7,91.5 	"/>
	<polygon class="st170" points="33.6,51.2 9.1,52.7 32.1,55.5 	"/>
	<polygon class="st171" points="10.5,69.9 11.7,71.4 12,71.4 11.9,71.6 16.3,77.1 23.5,68.5 9.1,69.9 6.2,71.4 11.4,71.4 	"/>
	<polygon class="st91" points="9.1,59.8 9.1,68.5 9.1,69.9 23.5,68.5 	"/>
	<polygon class="st172" points="20.6,21 27.8,25.3 27.8,16.6 19.2,21 14.9,26.7 20.6,33.9 	"/>
	<polygon class="st173" points="9.1,46.9 9.1,52.7 20.6,46.9 	"/>
	<polygon class="st174" points="37.9,16.6 36.5,16.6 27.8,16.6 33.6,26.7 	"/>
	<polygon class="st175" points="20.6,41.1 10.5,33.9 20.6,33.9 14.9,26.7 10.5,32.5 9.1,39.7 7.7,44 9.1,46.9 9.1,41.1 	"/>
	<polygon class="st176" points="12,87.2 6.2,81.4 4.8,75.7 6.2,82.9 7.7,91.5 	"/>
	<polygon class="st177" points="23.5,99.1 13.4,97.3 23.5,111.7 	"/>
	<polygon class="st178" points="23.5,98.7 17.7,95.8 13.4,97.3 23.5,99.1 	"/>
	<polygon class="st179" points="11.4,71.4 6.2,71.4 4.8,75.7 11.6,71.6 	"/>
	<polygon class="st180" points="17.7,91.5 13.4,97.3 17.7,95.8 	"/>
	<polygon class="st181" points="23.5,111.7 13.4,97.3 13.4,118.9 23.5,111.8 	"/>
	<polygon class="st182" points="11.7,71.8 11.6,71.6 4.8,75.7 6.2,81.4 	"/>
	<polygon class="st183" points="49.4,16.6 48,16.6 37.9,16.6 42.2,26.7 	"/>
	<polygon class="st184" points="23.5,111.8 13.4,118.9 23.5,118.9 	"/>
	<polygon class="st185" points="12,87.2 7.7,91.5 17.7,91.5 	"/>
	<polygon class="st186" points="12,87.2 17.7,91.5 17.7,81.4 	"/>
	<polygon class="st187" points="23.6,111.7 23.5,111.8 23.5,118.9 42.2,111.7 	"/>
	<polygon class="st79" points="27.8,149.1 30.7,152 28.6,149 	"/>
	<polygon class="st188" points="28.6,149 30.7,152 33.6,156.3 37.9,147.7 	"/>
	<polygon class="st189" points="37.9,147.7 33.6,156.3 37.9,156.3 	"/>
	<polygon class="st75" points="17.7,134.7 17.7,134.7 17.7,134.7 19.2,136.2 23.5,141.9 28.1,148.3 29.3,144.8 20.6,137.6 
		20.6,126.1 12,129 14.9,131.9 	"/>
	<polygon class="st190" points="37.9,156.3 40.8,159.2 43.7,156.3 	"/>
	<polygon class="st191" points="53.7,158.9 53.7,159.2 58,159.2 58,157.8 	"/>
	<polygon class="st192" points="40.8,159.2 46.5,159.2 49.4,159.2 43.7,156.3 	"/>
	<polygon class="st193" points="58,159.2 58,160.6 60.9,157.8 58,157.8 	"/>
	<polygon class="st194" points="53.3,158.9 53.7,159.2 53.7,158.9 	"/>
	<polygon class="st195" points="43.7,156.3 49.4,159.2 49.4,156.3 	"/>
	<polygon class="st194" points="52.3,159.2 49.4,159.2 53.8,160.6 53.7,159.2 53.3,158.9 	"/>
	<polygon class="st194" points="53.3,158.9 49.4,156.3 49.4,159.2 52.3,159.2 	"/>
	<polygon class="st65" points="17.7,134.7 17.7,134.7 7.7,134.7 12,139.1 	"/>
	<polygon class="st196" points="43.9,114.6 43.7,114.6 43.9,114.6 37.9,101.6 23.6,111.7 42.2,111.7 23.5,118.9 45.9,118.9 	"/>
	<polygon class="st197" points="12,139.1 7.7,141.9 12,141.9 	"/>
	<polygon class="st198" points="12,141.9 7.7,141.9 7.7,152 	"/>
	<polygon class="st79" points="23.5,141.9 23.5,152 30.7,152 27.8,149.1 	"/>
	<polygon class="st199" points="23.5,111.7 23.5,111.8 23.6,111.7 	"/>
	<polygon class="st200" points="46,119.3 45.9,118.9 23.5,118.9 37.9,126.1 	"/>
	<polygon class="st197" points="7.7,134.7 7.7,141.9 12,139.1 	"/>
	<polygon class="st201" points="7.7,152 23.5,152 17.3,145.9 	"/>
	<polygon class="st202" points="14.9,131.9 12,129 7.7,134.7 17.7,134.7 	"/>
	<polygon class="st203" points="7.6,152 13.4,156.3 23.5,152 7.7,152 	"/>
	<polygon class="st204" points="17.3,145.9 23.5,152 23.5,141.9 	"/>
	<polygon class="st205" points="7.6,152 7.6,160.6 13.4,156.3 	"/>
	<polygon class="st206" points="-0.6,152.2 7.6,160.6 7.6,152 	"/>
	<polygon class="st163" points="40.8,159.2 43.6,160.6 49.4,159.2 46.5,159.2 	"/>
	<polygon class="st207" points="23.5,68.5 16.3,77.1 19.2,78.6 	"/>
	<polygon class="st208" points="17.7,81.4 11.8,72 9.1,81.4 	"/>
	<polygon class="st209" points="33.6,51.2 32.1,55.5 43.7,55.5 	"/>
	<polygon class="st173" points="22,77.1 23.5,68.5 19.2,78.6 	"/>
	<polygon class="st210" points="35.1,61 30.6,64.1 23.3,68.7 43.9,64.1 	"/>
	<polygon class="st98" points="43.7,55.5 35,61.3 43.7,64.2 	"/>
	<polygon class="st211" points="59.5,154.9 60.9,157.8 60.9,154.2 	"/>
	<polygon class="st212" points="32.1,55.5 35,61.3 43.7,55.5 	"/>
	<polygon class="st213" points="33.6,71.4 23.5,68.5 22,77.1 	"/>
	<polygon class="st214" points="43.7,64.2 23.5,68.5 37.9,69.9 	"/>
	<polygon class="st215" points="37.9,69.9 23.5,68.5 33.6,71.4 	"/>
	<polygon class="st216" points="11.8,72 11.7,71.8 6.2,81.4 9.1,81.4 	"/>
	<polygon class="st217" points="9.1,81.4 6.2,81.4 12,87.2 12,87.2 17.7,81.4 	"/>
	<polygon class="st218" points="63.8,147.7 73.9,147.7 68.5,143.7 	"/>
	<polygon class="st219" points="60.9,157.8 73.9,147.7 60.9,154.2 	"/>
	<polygon class="st220" points="59.5,147.7 59.5,153.4 59.5,154.9 60.9,154.2 60.9,153.4 60.9,154.2 73.9,147.7 63.8,147.7 	"/>
	<polygon class="st221" points="36.5,94.4 23.5,98.7 23.5,99.1 37.9,101.6 	"/>
	<polygon class="st222" points="37.9,126.1 20.6,126.1 20.6,137.6 	"/>
	<polygon class="st223" points="19.2,78.6 16.3,77.1 11.9,71.6 11.8,72 17.7,81.4 17.7,91.5 17.7,95.8 19.2,95.8 	"/>
	<polygon class="st224" points="37.9,101.6 48,93 20.6,95.8 19.2,95.8 17.7,95.8 23.5,98.7 36.5,94.4 	"/>
	<polygon class="st225" points="48.8,49.1 43.7,49.8 33.6,51.2 43.7,55.5 	"/>
	<polygon class="st226" points="23.5,118.9 20.6,126.1 37.9,126.1 	"/>
	<polygon class="st227" points="37.9,101.6 23.5,99.1 23.5,111.7 23.6,111.7 	"/>
	<polygon class="st228" points="73.9,147.7 73.9,139.1 68.5,143.7 	"/>
	<polygon class="st229" points="53.7,74.3 53.7,71.4 49.4,72.8 50.8,72.8 	"/>
	<polygon class="st230" points="56.6,74.3 55.2,71.4 53.7,74.3 	"/>
	<polygon class="st231" points="49.4,72.8 49.4,69.9 45.1,71.4 42.2,72.8 48,72.8 	"/>
	<path class="st232" d="M49.4,69.9c-0.9,0-2.1,0-2.9,0c-1.4,0-4.3,0-4.3,0l2.9,1.4L49.4,69.9z"/>
	<path class="st233" d="M53.7,71.4v2.9l1.4-2.9l-4.3-1.4c0,0-0.6,0-1.4,0v2.9L53.7,71.4z"/>
	<polygon class="st234" points="42.2,69.9 42.2,72.8 45.1,71.4 	"/>
	<polygon class="st235" points="42.2,72.8 42.2,69.9 37.9,69.9 39.3,71.4 	"/>
	<polygon class="st236" points="37.9,69.9 33.6,71.4 39.3,71.4 	"/>
	<polygon class="st237" points="39.3,71.4 33.6,71.4 36.5,72.8 	"/>
	<polygon class="st238" points="42.2,72.8 39.3,71.4 36.5,72.8 37.9,72.8 	"/>
	<polygon class="st239" points="78.2,78.6 81.2,78.6 79.7,75.5 	"/>
	<polygon class="st240" points="76.8,75.7 72.4,74.3 72.4,77.1 	"/>
	<polygon class="st241" points="69.6,77.1 72.4,74.3 69.6,74.3 	"/>
	<polygon class="st242" points="72.4,77.1 73.9,77.1 78.2,78.6 76.8,75.7 	"/>
	<polygon class="st243" points="71,77.1 72.4,77.1 72.4,74.3 69.6,77.1 	"/>
	<polygon class="st244" points="72.4,74.3 76.8,75.7 78.2,78.6 79.7,75.7 73.9,74.3 	"/>
	<polygon class="st245" points="69.6,74.3 65.3,77.1 69.6,77.1 	"/>
	<polygon class="st246" points="46.5,81.4 48,81.4 49.4,81.4 49.4,78.6 	"/>
	<polygon class="st247" points="49.4,78.6 49.4,81.4 52.3,78.6 	"/>
	<polygon class="st248" points="46.5,78.6 46.5,81.4 49.4,78.6 	"/>
	<polygon class="st249" points="52.3,78.6 52.3,81.4 53.7,80 	"/>
	<polygon class="st250" points="46.5,78.6 49.4,78.6 52.3,78.6 46.5,77.1 	"/>
	<polygon class="st251" points="49.4,81.4 52.3,81.4 52.3,78.6 	"/>
	<polygon class="st252" points="48,75.7 46.5,75.7 45.1,75.7 46.5,77.1 	"/>
	<polygon class="st253" points="43.7,76.4 43.7,75.7 42.2,75.7 42.2,77.1 	"/>
	<polygon class="st254" points="48,75.7 46.5,77.1 52.3,78.6 50.8,77.1 	"/>
	<polygon class="st255" points="42.2,75.7 40.8,75.7 42.2,77.1 	"/>
	<polygon class="st256" points="43.7,78.6 42.2,78.6 40.8,78.6 43.7,80 46.5,78.6 45.1,78.6 	"/>
	<polygon class="st257" points="43.7,80 40.8,81.4 43.7,81.4 46.5,81.4 46.5,78.6 	"/>
	<polygon class="st258" points="40.8,78.6 40.8,80 40.8,81.4 43.7,80 	"/>
	<polygon class="st259" points="37.9,80 40.8,81.4 40.8,80 	"/>
	<polygon class="st260" points="40.8,77.1 40.8,75.7 37.9,77.1 	"/>
	<polygon class="st261" points="40.8,75.7 37.9,75.7 36.5,75.7 37.9,77.1 	"/>
	<polygon class="st262" points="35,77.1 36.5,78.6 37.9,80 37.9,77.1 	"/>
	<polygon class="st263" points="36.5,75.7 33.6,75.7 35,77.1 	"/>
	<polygon class="st264" points="75.3,84.3 78.2,84.3 78.2,81.4 76.8,82.9 	"/>
	<polygon class="st265" points="71,85.8 72.4,85.8 72.4,84.3 	"/>
	<polygon class="st59" points="72.4,80 73.9,81.4 78.2,81.4 73.9,80 	"/>
	<polygon class="st148" points="76.8,82.9 78.2,81.4 73.9,81.4 	"/>
	<polygon class="st266" points="66.7,81.4 66.7,84.3 68.1,82.9 68.1,81.4 	"/>
	<polygon class="st267" points="72.4,85.8 75.3,84.3 72.4,84.3 	"/>
	<polygon class="st72" points="66.7,84.3 66.7,81.4 66.7,80 63.8,82.9 	"/>
	<polygon class="st268" points="76.8,82.9 73.9,81.4 73.9,82.9 	"/>
	<polygon class="st269" points="68.1,81.4 69.6,80 66.7,80 66.7,81.4 	"/>
	<polygon class="st270" points="72.4,84.3 75.3,84.3 73.9,82.9 	"/>
	<polygon class="st271" points="75.3,84.3 76.8,82.9 73.9,82.9 	"/>
	<polygon class="st265" points="71,84.3 69.6,84.3 68.1,82.9 66.7,84.3 71,85.8 72.4,84.3 	"/>
	<polygon class="st272" points="76.8,85.8 78.2,84.3 75.3,84.3 	"/>
	<polygon class="st273" points="72.4,85.8 73.9,85.8 76.8,85.8 75.3,84.3 	"/>
	<polygon class="st274" points="62.4,97.3 68.1,97.3 65.3,93 	"/>
	<polygon class="st275" points="58,97.3 59.5,101.6 62.4,97.3 	"/>
	<polygon class="st276" points="62.4,97.3 65.3,93 58,97.3 	"/>
	<polygon class="st277" points="55.2,93 48,93 49.4,95.8 	"/>
	<polygon class="st278" points="59.5,85.8 62.4,78.6 58,78.6 	"/>
	<polygon class="st279" points="62.4,97.3 59.5,101.6 60.9,101.6 60.9,100.2 63.8,100.2 	"/>
	<polygon class="st280" points="63.8,85.8 62.4,78.6 59.5,85.8 	"/>
	<polygon class="st281" points="63.8,100.2 65.3,98.7 68.1,97.3 62.4,97.3 	"/>
	<polygon class="st282" points="49.4,95.8 52.3,95.8 53.7,95.8 55.2,93 	"/>
	<polygon class="st283" points="53.7,85.8 53.2,85.8 52.3,87.2 49.4,91.5 48,93 55.2,93 	"/>
	<polygon class="st284" points="53.7,95.8 56.6,100.2 58,97.3 	"/>
	<polygon class="st285" points="60.9,101.6 63.8,100.2 60.9,100.2 	"/>
	<polygon class="st68" points="62.4,78.6 62.4,75.7 58,78.6 	"/>
	<polygon class="st286" points="53.7,95.8 65.3,93 55.2,93 	"/>
	<polygon class="st287" points="56.6,100.2 59.5,101.6 58,97.3 	"/>
	<polygon class="st288" points="58,97.3 65.3,93 53.7,95.8 	"/>
	<polygon class="st289" points="53.2,85.8 53.7,85.8 53.6,85.3 	"/>
	<polygon class="st290" points="55.2,93 65.3,93 63.8,85.8 	"/>
	<polygon class="st291" points="59.5,85.8 53.7,85.8 55.2,93 63.8,85.8 	"/>
	<polygon class="st292" points="53.6,85.3 53.7,85.8 53.7,85.1 	"/>
	<polygon class="st292" points="58,78.6 55.2,82.9 53.7,85.1 53.7,85.8 59.5,85.8 	"/>
	<polygon class="st293" points="49.7,111.6 53.7,114.6 53.7,110.3 	"/>
	<polygon class="st294" points="50.8,101.6 53.7,105.9 59.5,104.5 55.2,103.1 	"/>
	<polygon class="st295" points="62.4,107.4 63.8,107.4 66.7,107.4 63.8,104.5 58,107.4 	"/>
	<polygon class="st296" points="55.2,103.1 59.5,104.5 56.6,101.6 50.8,101.6 	"/>
	<polygon class="st297" points="53.7,110.3 53.7,114.6 58,110.3 56.6,110.3 	"/>
	<polygon class="st298" points="63.8,104.5 59.5,104.5 58,107.4 	"/>
	<polygon class="st299" points="53.7,106.3 58,107.4 59.5,104.5 53.7,105.9 	"/>
	<polygon class="st300" points="45.1,107.4 48,107.4 43.7,104.5 	"/>
	<polygon class="st301" points="53.7,110.3 56.6,110.3 58,110.3 62.4,110.3 59.5,108.8 	"/>
	<polygon class="st302" points="58,107.4 59.5,108.8 63.8,107.4 62.4,107.4 	"/>
	<polygon class="st302" points="48,107.4 53.7,110.3 53.7,106.3 53,106.1 	"/>
	<polygon class="st303" points="53.7,106.3 53.7,105.9 53,106.1 	"/>
	<polygon class="st304" points="58,107.4 53.7,106.3 53.7,110.3 	"/>
	<polygon class="st305" points="48,107.4 49.3,111.2 49.7,111.6 53.7,110.3 	"/>
	<polygon class="st302" points="52.3,105.9 46.5,104.5 43.7,103.1 48,107.4 53,106.1 	"/>
	<polygon class="st306" points="48,107.4 43.7,103.1 39.3,101.6 43.7,104.5 	"/>
	<polygon class="st303" points="52.3,105.9 53,106.1 53.7,105.9 50.8,101.6 46.5,104.5 	"/>
	<polygon class="st307" points="39.3,101.6 40.8,104.5 43.7,104.5 	"/>
	<polygon class="st308" points="46.5,104.5 50.8,101.6 49.4,101.6 40.8,101.6 39.3,101.6 43.7,103.1 	"/>
	<polygon class="st309" points="45.1,107.4 43.7,104.5 40.8,104.5 48,110.3 49.3,111.2 48,107.4 	"/>
	<polygon class="st310" points="64,110.6 64.2,110.4 63.8,110.3 	"/>
	<polygon class="st311" points="39.3,101.6 37.9,101.6 40.8,104.5 	"/>
	<polygon class="st310" points="60.9,113.1 64,110.6 63.8,110.3 64.2,110.4 67.4,107.7 62.4,110.3 	"/>
	<polygon class="st312" points="53.7,114.6 60.9,113.1 58,110.3 	"/>
	<polygon class="st313" points="58,110.3 60.9,113.1 62.4,110.3 	"/>
	<polygon class="st314" points="56.6,101.6 59.5,104.5 63.8,104.5 66.7,107.4 63.8,107.4 62.4,110.3 67.4,107.7 69.6,105.9 
		65.3,104.5 	"/>
	<polygon class="st315" points="20.6,46.9 9.1,52.7 33.6,51.2 	"/>
	<polygon class="st316" points="9.1,41.1 9.1,46.9 20.6,46.9 	"/>
	<polygon class="st317" points="27.8,33.9 33.6,26.7 27.8,16.6 27.8,25.3 	"/>
	<polygon class="st318" points="32.9,40.3 33.6,41.1 33.6,39.7 	"/>
	<polygon class="st318" points="33.6,39.7 33.6,26.7 27.8,33.9 32.9,40.3 	"/>
	<polygon class="st319" points="42.2,26.7 37.9,16.6 33.6,26.7 	"/>
	<polygon class="st320" points="42.2,41.1 49.4,33.9 39.3,33.9 	"/>
	<polygon class="st109" points="66.7,42.6 60.9,33.9 49.4,48.3 	"/>
	<polygon class="st253" points="43.7,76.4 42.2,77.1 43.7,78.6 	"/>
	<polygon class="st321" points="43.7,78.6 46.5,77.1 45.1,75.7 43.7,76.4 	"/>
	<polygon class="st322" points="40.8,78.6 42.2,77.1 40.8,75.7 40.8,77.1 	"/>
	<polygon class="st323" points="43.7,78.6 42.2,77.1 40.8,78.6 42.2,78.6 	"/>
	<polygon class="st324" points="43.7,78.6 45.1,78.6 46.5,78.6 46.5,77.1 	"/>
	<polygon class="st325" points="36.5,75.7 35,77.1 37.9,77.1 	"/>
	<polygon class="st326" points="73.9,82.9 73.9,81.4 71,81.4 	"/>
	<polygon class="st327" points="71,84.3 72.4,84.3 71,81.4 69.6,84.3 	"/>
	<polygon class="st328" points="69.6,81.4 69.6,80 68.1,81.4 	"/>
	<polygon class="st329" points="68.1,82.9 71,81.4 69.6,81.4 68.1,81.4 	"/>
	<polygon class="st330" points="69.6,80 73.9,81.4 72.4,80 71,80 	"/>
	<polygon class="st331" points="69.6,84.3 71,81.4 68.1,82.9 	"/>
	<polygon class="st332" points="73.9,82.9 71,81.4 72.4,84.3 	"/>
	<polygon class="st333" points="69.6,81.4 71,81.4 73.9,81.4 69.6,80 	"/>
	<polygon class="st334" points="59.5,108.8 58,107.4 53.7,110.3 	"/>
	<polygon class="st302" points="62.4,110.3 63.8,107.4 59.5,108.8 	"/>
	<polygon class="st335" points="43.7,55.5 43.7,64.2 55.2,64.2 	"/>
	<polygon class="st336" points="53.7,120.3 53.7,127.5 60.9,121.8 53.7,114.6 	"/>
	<polygon class="st139" points="60.9,129 65.3,124.7 60.9,121.8 	"/>
	<polygon class="st337" points="7.7,134.7 -0.8,141.9 7.7,141.9 	"/>
	<polygon class="st338" points="7.6,152 7.6,152 7.7,152 7.7,141.9 -0.7,152.1 -0.6,152.2 	"/>
	<polygon class="st339" points="13.4,156.3 23.5,160.6 23.5,152 	"/>
	<polygon class="st6" points="37.9,137.6 50.8,126.1 37.9,126.1 	"/>
	<polyline class="st111" points="30.7,87.2 30.7,78.6 35,77.1 	"/>
	<polyline class="st262" points="37.9,77.1 37.9,80 40.8,78.6 	"/>
	<polyline class="st26" points="53.7,147.6 53.7,153.6 59.6,147.6 	"/>
	<polyline class="st211" points="59.5,154.8 58.1,157.8 61,157.8 	"/>
	<polygon class="st111" points="33.6,71.3 33.6,75.6 30.7,78.5 	"/>
	<polyline class="st110" points="49.4,72.7 46.5,75.7 50.9,75.7 	"/>
	<polygon class="st110" points="65.3,77 62.4,75.6 66.7,71.3 	"/>
	<polyline class="st110" points="73.9,74.3 69.5,74.3 66.6,71.3 	"/>
	<polyline class="st110" points="66.7,79.9 72.5,77 69.6,77 	"/>
	<polygon class="st150" points="81.1,78.5 79.7,75.4 81.1,71.3 	"/>
	<polyline class="st36" points="71,92.9 68.1,97.3 70.9,100.2 71,100.3 	"/>
	<polyline class="st304" points="53.8,110.2 58.1,107.3 59.5,108.7 	"/>
	<polyline class="st139" points="65.1,128.9 68.2,120.2 65.1,124.6 	"/>
	<polygon class="st177" points="23.5,111.6 42.2,111.6 37.9,101.5 	"/>
	<polygon class="st28" points="37.9,101.6 48,92.9 49.4,95.8 49.4,101.6 	"/>
	<polygon class="st261" points="37.9,77.1 40.8,78.6 40.8,77.1 	"/>
	<polyline class="st258" points="40.8,78.6 37.9,77.1 37.9,80 37.9,77.1 40.8,78.6 40.8,80 37.9,80 40.8,78.6 37.9,77.1 40.8,78.6 
		37.9,77.1 	"/>
	<polyline class="st170" points="9.1,52.7 32.1,55.5 23.5,68.5 9.1,59.8 	"/>
	<polyline class="st100" points="32.1,55.5 35,61.3 23.9,68.6 23.5,68.5 	"/>
	<polyline class="st223" points="11.4,71.4 12,71.4 11.8,72 	"/>
	<polyline class="st261" points="43.7,76.4 43.7,75.7 45.1,75.7 	"/>
	<polyline class="st1" points="85.4,154.9 93.9,147.8 96.2,148.8 	"/>
	<polyline class="st211" points="40.8,159.2 37.9,156.3 33.6,156.3 36.5,157.8 	"/>
</g>
</svg>
